<?xml version="1.0" standalone="no"?>
<!DOCTYPE svg PUBLIC "-//W3C//DTD SVG 20010904//EN"
 "http://www.w3.org/TR/2001/REC-SVG-20010904/DTD/svg10.dtd">
<svg version="1.0" xmlns="http://www.w3.org/2000/svg"
 width="283.464567pt" height="283.464567pt" viewBox="0 0 283.464567 283.464567"
 preserveAspectRatio="xMidYMid meet">
<metadata>
Created by potrace 1.13, written by Peter Selinger 2001-2015
</metadata>
<g transform="translate(0.000000,283.464567) scale(0.094804,-0.228600)"
fill="#000000" stroke="none">
<path d="M1258 1233 c6 -2 18 -2 25 0 6 3 1 5 -13 5 -14 0 -19 -2 -12 -5z"/>
<path d="M2365 823 c-35 -9 -86 -52 -135 -112 -14 -17 -39 -36 -57 -42 -18 -6
-33 -14 -33 -19 0 -5 25 -24 55 -42 30 -18 77 -49 104 -69 62 -45 116 -55 188
-34 41 12 58 24 78 53 44 65 26 138 -53 210 -38 35 -100 66 -122 61 -3 -1 -14
-4 -25 -6z m120 -55 c34 -22 45 -38 26 -38 -5 0 -11 5 -13 10 -2 6 -12 12 -23
15 -11 2 -38 11 -60 19 l-40 15 38 1 c22 0 51 -9 72 -22z m-97 -75 c12 -10 13
-15 3 -27 -27 -32 16 -76 75 -76 14 0 38 7 54 15 23 12 30 13 30 3 -1 -27 -48
-70 -86 -78 -48 -11 -58 -4 -16 12 34 13 45 41 15 37 -26 -4 -66 11 -86 32
-26 28 -87 23 -87 -7 0 -9 -10 -7 -34 9 -18 12 -31 28 -28 35 7 20 136 82 141
69 2 -7 10 -17 19 -24z m-43 -133 c10 -11 14 -20 8 -20 -5 0 -18 9 -28 20 -10
11 -14 20 -8 20 5 0 18 -9 28 -20z"/>
<path d="M692 805 l-23 -12 35 -31 c19 -17 42 -35 52 -40 22 -12 12 -28 -34
-49 -20 -9 -40 -21 -43 -26 -3 -4 -26 -10 -50 -12 -24 -2 -78 -7 -121 -11 -76
-7 -76 -7 -81 -38 -6 -43 9 -70 36 -62 12 4 31 9 42 12 29 7 222 15 208 8 -23
-10 -1 -33 48 -49 53 -18 67 -31 51 -47 -6 -6 -8 -17 -5 -26 4 -8 -2 -21 -12
-28 -13 -10 -16 -17 -9 -24 7 -7 39 -3 100 14 49 13 161 41 249 61 88 21 188
46 222 56 101 30 208 49 272 49 33 0 70 4 83 9 13 6 62 15 109 21 74 10 88 15
97 34 13 29 6 39 -38 59 -50 22 -107 32 -235 41 -22 2 -110 8 -195 15 -85 6
-180 15 -210 21 -30 5 -84 12 -120 16 -36 3 -103 13 -150 21 -202 35 -243 38
-278 18z m104 -40 c16 -4 112 -15 214 -25 232 -23 410 -51 410 -63 0 -6 -19
-7 -47 -3 -27 3 -66 8 -88 11 -22 3 -80 12 -130 20 -127 21 -251 35 -310 35
-36 0 -57 6 -75 21 -14 11 -20 18 -14 15 6 -3 24 -8 40 -11z m34 -89 c0 -16
21 -22 115 -33 l70 -7 -70 -8 c-43 -4 -83 -3 -102 3 -18 6 -37 8 -43 4 -24
-15 -31 8 -9 31 25 27 39 31 39 10z m260 0 c14 -2 -31 -4 -100 -4 -69 -1 -130
2 -137 6 -11 7 179 5 237 -2z m640 -6 l25 -8 -25 0 c-14 0 -38 4 -55 8 l-30 8
30 0 c17 0 41 -4 55 -8z m-625 -40 c3 -6 -5 -10 -19 -10 -14 0 -28 5 -31 10
-3 6 5 10 19 10 14 0 28 -4 31 -10z m158 -7 c-7 -2 -19 -2 -25 0 -7 3 -2 5 12
5 14 0 19 -2 13 -5z m207 -2 c19 -5 7 -9 -45 -14 -106 -10 -132 -9 -139 8 -4
13 8 15 77 14 45 -1 93 -4 107 -8z m193 -8 c-7 -2 -19 -2 -25 0 -7 3 -2 5 12
5 14 0 19 -2 13 -5z m-903 -18 c-3 -5 -11 -9 -17 -9 -7 1 -10 -2 -7 -7 3 -5
-7 -9 -23 -9 -42 0 -104 20 -97 31 8 13 151 7 144 -6z m857 9 c-3 -3 -12 -4
-19 -1 -8 3 -5 6 6 6 11 1 17 -2 13 -5z m-442 -14 c-38 -4 -119 -8 -178 -9
-69 -1 -106 -5 -102 -11 4 -6 -10 -10 -34 -10 -44 0 -44 0 -35 24 5 14 33 16
213 14 149 -1 187 -3 136 -8z m-670 -10 c-3 -5 -15 -10 -26 -10 -11 0 -17 5
-14 10 3 6 15 10 26 10 11 0 17 -4 14 -10z m610 -30 c-11 -5 -41 -12 -68 -15
-26 -3 -45 -10 -42 -16 4 -5 -10 -9 -29 -9 -19 0 -58 -5 -86 -11 -44 -9 -54
-8 -81 9 l-30 19 153 12 c84 7 160 14 168 16 29 5 35 4 15 -5z m250 -12 c-16
-6 -34 -14 -40 -18 -5 -5 -28 -11 -50 -15 -22 -4 -51 -10 -65 -15 -14 -4 -52
-14 -85 -21 -33 -6 -94 -20 -135 -30 -41 -10 -76 -16 -79 -14 -2 3 2 5 10 6 8
1 3 4 -11 8 -21 6 -15 9 30 15 104 13 185 28 230 41 25 8 58 17 73 20 15 3 25
10 22 15 -5 8 35 16 100 18 l30 0 -30 -10z m-177 -15 c-10 -2 -26 -2 -35 0
-10 3 -2 5 17 5 19 0 27 -2 18 -5z m-248 -47 c-41 -7 -79 -10 -85 -7 -12 7 62
18 120 18 26 0 14 -4 -35 -11z"/>
</g>
</svg>
