<?xml version="1.0" standalone="no"?>
<!DOCTYPE svg PUBLIC "-//W3C//DTD SVG 20010904//EN"
 "http://www.w3.org/TR/2001/REC-SVG-20010904/DTD/svg10.dtd">
<svg version="1.0" xmlns="http://www.w3.org/2000/svg"
 width="283.464567pt" height="283.464567pt" viewBox="0 0 283.464567 283.464567"
 preserveAspectRatio="xMidYMid meet">
<metadata>
Created by potrace 1.13, written by Peter Selinger 2001-2015
</metadata>
<g transform="translate(0.000000,283.464567) scale(0.110297,-0.127687)"
fill="#000000" stroke="none">
<path d="M430 1802 c-63 -60 -57 -69 75 -114 61 -21 95 -41 175 -103 53 -40
179 -118 258 -159 32 -16 58 -30 60 -32 2 -1 9 -50 16 -110 17 -140 14 -376
-6 -424 -51 -122 -47 -117 -107 -139 -31 -11 -110 -36 -176 -56 -185 -58 -269
-87 -282 -99 -11 -11 -3 -99 11 -113 6 -6 144 40 416 137 47 16 90 30 96 30
13 0 38 -139 28 -163 -7 -20 16 -32 50 -23 22 5 23 9 22 102 -1 54 3 102 9
110 5 8 27 17 47 21 33 5 42 1 79 -31 42 -39 65 -43 83 -14 8 13 5 22 -13 42
-13 13 -20 29 -17 34 3 6 39 13 79 17 57 5 85 3 123 -10 27 -9 70 -17 96 -16
25 0 72 -9 105 -20 32 -11 99 -31 148 -45 50 -13 99 -29 110 -33 11 -5 58 -22
105 -37 47 -15 89 -31 94 -36 26 -22 60 18 38 45 -9 11 -27 91 -38 172 -12 86
-26 125 -44 125 -16 0 -13 12 25 93 45 96 65 156 65 195 0 17 -10 28 -42 42
-42 19 -43 20 -12 20 54 0 68 19 61 81 -20 166 -73 339 -104 339 -8 0 -48 -11
-91 -24 -137 -44 -275 -84 -347 -100 -38 -9 -90 -22 -115 -29 -67 -18 -262
-14 -335 7 -72 21 -85 31 -85 62 0 31 -33 64 -65 64 -20 0 -25 -5 -25 -26 l0
-26 -57 33 c-125 70 -231 126 -293 153 -36 16 -88 44 -116 62 -28 19 -54 34
-57 34 -3 0 -24 -17 -47 -38z m163 -66 c230 -121 282 -149 319 -172 22 -14 49
-29 61 -34 12 -6 29 -14 37 -19 104 -61 179 -80 320 -82 143 -2 146 -2 195 15
22 8 76 21 120 30 44 8 109 27 144 41 36 14 73 25 83 25 10 0 51 11 90 25 39
14 75 25 80 25 29 0 81 -185 82 -294 l1 -39 -64 -13 c-102 -21 -103 -48 -3
-74 56 -15 57 -16 54 -50 -9 -91 -167 -400 -204 -400 -18 0 -168 99 -253 168
-118 94 -324 291 -342 326 -30 60 -96 110 -238 179 -192 94 -298 156 -400 233
-92 69 -125 87 -192 104 -45 11 -56 32 -25 49 25 15 24 16 135 -43z m467 -192
c0 -8 -4 -12 -10 -9 -5 3 -10 13 -10 21 0 8 5 12 10 9 6 -3 10 -13 10 -21z
m23 -249 c4 -39 9 -92 11 -120 10 -189 21 -305 32 -339 17 -47 17 -46 2 -46
-7 0 -23 12 -35 28 l-23 27 -17 -21 c-10 -11 -26 -31 -36 -45 l-18 -24 12 25
c6 14 19 33 28 44 14 16 16 48 15 235 0 119 -4 238 -9 265 -7 44 -6 48 11 44
16 -3 20 -16 27 -73z m168 -54 c23 -25 78 -85 123 -134 75 -81 90 -104 76
-117 -3 -3 -21 -30 -41 -60 -33 -50 -42 -57 -95 -74 -32 -10 -63 -22 -69 -26
-5 -4 -22 -10 -37 -14 -25 -6 -28 -2 -46 47 -11 29 -18 64 -15 79 3 14 0 65
-6 114 -7 49 -13 123 -15 165 -2 42 -7 86 -11 99 -7 22 -7 22 44 -6 29 -15 70
-48 92 -73z m290 -293 c74 -72 218 -183 290 -224 11 -6 33 -24 49 -39 32 -31
77 -32 72 -2 -2 10 9 32 23 49 14 17 32 43 41 59 32 64 51 32 77 -133 10 -63
11 -88 3 -88 -6 0 -65 19 -131 41 -66 22 -158 51 -205 65 -47 13 -107 31 -135
39 -122 36 -254 51 -309 35 -24 -6 -60 -13 -82 -14 -21 -2 -60 -13 -87 -24
-26 -12 -71 -28 -100 -36 -95 -27 -180 -54 -361 -116 -98 -33 -184 -60 -191
-60 -8 0 -17 10 -21 22 -8 28 12 43 79 58 53 12 279 80 352 106 23 8 48 14 57
14 9 0 29 6 45 14 15 8 71 27 123 42 52 15 109 33 125 40 17 7 53 18 80 25 47
11 95 42 95 61 0 8 60 108 65 108 1 0 22 -19 46 -42z m-451 -162 c0 -3 -4 -8
-10 -11 -5 -3 -10 -1 -10 4 0 6 5 11 10 11 6 0 10 -2 10 -4z m-60 -216 l-7
-45 -1 60 c-1 37 2 54 7 45 5 -8 5 -35 1 -60z"/>
</g>
</svg>
