<?xml version="1.0" standalone="no"?>
<!DOCTYPE svg PUBLIC "-//W3C//DTD SVG 20010904//EN"
 "http://www.w3.org/TR/2001/REC-SVG-20010904/DTD/svg10.dtd">
<svg version="1.0" xmlns="http://www.w3.org/2000/svg"
 width="283.464567pt" height="283.464567pt" viewBox="0 0 283.464567 283.464567"
 preserveAspectRatio="xMidYMid meet">
<metadata>
Created by potrace 1.13, written by Peter Selinger 2001-2015
</metadata>
<g transform="translate(0.000000,283.464567) scale(0.228600,-0.094804)"
fill="#000000" stroke="none">
<path d="M536 2557 c-14 -10 -16 -19 -10 -38 4 -13 9 -31 11 -39 6 -28 13
-215 7 -203 -10 23 -33 1 -49 -48 -18 -53 -31 -67 -47 -51 -6 6 -17 8 -26 5
-8 -4 -21 2 -28 12 -10 13 -17 16 -24 9 -7 -7 -3 -39 14 -100 13 -49 41 -161
61 -249 21 -88 46 -188 56 -222 30 -101 49 -208 49 -272 0 -33 4 -70 9 -83 6
-13 15 -62 21 -109 10 -74 15 -88 34 -97 29 -13 39 -6 59 38 22 50 32 107 41
235 2 22 8 110 15 195 6 85 15 180 21 210 5 30 12 84 16 120 3 36 12 101 20
145 31 178 37 248 21 278 l-14 28 -31 -35 c-17 -19 -35 -42 -40 -52 -12 -22
-28 -12 -49 34 -9 20 -21 40 -26 43 -4 3 -10 26 -12 50 -2 24 -7 79 -11 122
-6 64 -10 77 -25 77 -9 0 -23 2 -31 5 -7 3 -22 -1 -32 -8z m54 -58 c0 -11 -4
-17 -10 -14 -5 3 -10 15 -10 26 0 11 5 17 10 14 6 -3 10 -15 10 -26z m18 -205
c-2 -42 -7 -67 -13 -64 -5 3 -9 11 -9 17 1 7 -2 10 -7 7 -12 -7 -11 43 2 90
16 58 30 31 27 -50z m168 -62 c-10 -17 -18 -71 -36 -252 -23 -232 -51 -410
-63 -410 -6 0 -7 19 -3 48 3 26 8 65 11 87 3 22 12 81 20 130 21 127 35 251
35 308 0 27 7 58 16 72 15 22 33 37 20 17z m-86 -64 c0 -4 -6 -8 -14 -8 -16 0
-22 -21 -33 -115 l-7 -70 -8 70 c-4 43 -3 83 3 102 6 18 8 37 4 43 -3 5 -3 15
0 21 7 11 55 -26 55 -43z m-138 -253 c6 -67 -7 -47 -17 28 -3 26 -10 45 -16
42 -5 -4 -9 10 -9 29 0 19 -5 58 -11 85 -9 43 -8 55 8 81 l18 31 11 -118 c7
-65 14 -145 16 -178z m32 249 c14 -5 16 -33 14 -213 -1 -215 -14 -183 -17 42
-1 69 -5 106 -11 102 -6 -4 -10 10 -10 34 0 44 0 44 24 35z m96 -154 l-6 -135
-2 122 c-2 99 4 167 12 151 1 -2 -1 -64 -4 -138z m-192 0 c0 -19 -6 -1 -12 40
-7 41 -10 80 -7 85 7 12 19 -74 19 -125z m-19 -65 c7 -44 18 -100 26 -125 8
-25 17 -58 20 -73 3 -15 9 -25 14 -23 9 6 26 -113 17 -122 -3 -3 -6 1 -6 9 0
8 -7 27 -15 42 -8 15 -17 45 -20 65 -4 20 -10 48 -15 62 -4 14 -12 48 -18 75
-11 51 -39 174 -48 210 -4 16 -3 17 5 5 9 -12 11 -10 12 10 1 30 11 -17 28
-135z m162 -58 c-8 -8 -11 -4 -11 14 0 33 14 47 18 19 2 -12 -1 -27 -7 -33z
m-104 -84 c-3 -10 -5 -2 -5 17 0 19 2 27 5 18 2 -10 2 -26 0 -35z m100 -75
c-3 -7 -5 -2 -5 12 0 14 2 19 5 13 2 -7 2 -19 0 -25z m-5 -200 c-8 -28 -10
-18 -17 66 -6 79 -5 100 6 107 11 7 15 -6 17 -66 2 -41 -1 -89 -6 -107z m-15
-150 c-3 -8 -6 -5 -6 6 -1 11 2 17 5 13 3 -3 4 -12 1 -19z m10 -50 c-3 -7 -5
-2 -5 12 0 14 2 19 5 13 2 -7 2 -19 0 -25z m58 -43 c-3 -26 -9 -45 -12 -42 -2
3 -1 26 2 52 4 25 10 44 12 41 3 -3 2 -26 -2 -51z"/>
<path d="M1232 1720 c0 -14 2 -19 5 -12 2 6 2 18 0 25 -3 6 -5 1 -5 -13z"/>
<path d="M608 795 c-18 -30 -49 -77 -69 -104 -45 -62 -55 -116 -34 -188 12
-41 24 -58 53 -78 65 -44 138 -26 210 53 90 99 75 176 -57 282 -17 14 -36 39
-42 57 -6 18 -14 33 -19 33 -5 0 -24 -25 -42 -55z m88 -106 c25 -51 31 -69 20
-69 -8 0 -19 -8 -25 -17 -7 -14 -12 -15 -25 -4 -21 17 -51 6 -64 -25 -16 -34
-15 -69 3 -104 12 -23 13 -30 3 -30 -27 1 -70 48 -78 86 -11 48 -4 58 12 16
13 -34 41 -45 37 -14 -4 25 11 65 32 85 28 26 23 87 -7 87 -9 0 -7 10 9 34 12
18 28 31 35 28 7 -2 29 -35 48 -73z m-131 -39 c-10 -11 -20 -18 -23 -15 -3 3
3 14 13 25 10 11 20 18 23 15 3 -3 -3 -14 -13 -25z m203 -144 c-22 -35 -38
-46 -38 -27 0 5 5 11 10 13 6 2 12 12 15 23 2 11 10 37 17 58 l13 39 3 -35 c2
-24 -4 -47 -20 -71z"/>
</g>
</svg>
