<svg xmlns="http://www.w3.org/2000/svg" viewBox="0 -1549 1553 1993">
    <g transform="scale(1, -1)">
        <path d="M892 571 805 1088 481 571ZM732 0 749 73Q852 81 909.5 98.5Q967 116 967 137Q967 155 965.0 168.0Q963 181 960 198L910 477H421Q397 440 360.5 379.5Q324 319 299 276Q261 208 254.5 183.0Q248 158 248 151Q248 121 295.0 101.5Q342 82 439 73L422 0H-174L-157 73Q-128 75 -84.0 83.0Q-40 91 -10 107Q32 129 69.0 164.0Q106 199 138 249Q341 561 511.0 825.5Q681 1090 905 1439H1103Q1180 991 1230.5 698.0Q1281 405 1319 208Q1324 178 1338.5 153.5Q1353 129 1385 107Q1409 91 1443.5 83.0Q1478 75 1508 73L1491 0Z"/>
    </g>
</svg>
