<svg xmlns="http://www.w3.org/2000/svg" viewBox="0 -1549 1374 1993">
    <g transform="scale(1, -1)">
        <path d="M875 576 786 1130 446 576ZM722 0 737 66Q768 69 809.5 74.5Q851 80 874 87Q905 97 920.5 108.0Q936 119 936 142Q936 150 924.0 240.0Q912 330 890 493H392Q359 441 322.0 372.5Q285 304 265 268Q247 236 230.5 196.5Q214 157 214 144Q214 111 267.0 91.0Q320 71 400 66L385 0H-160L-145 66Q-119 68 -77.5 77.5Q-36 87 -8 103Q27 123 59.5 152.5Q92 182 129 241Q302 515 508.5 851.0Q715 1187 872 1439H952L1141 210Q1147 173 1161.0 147.5Q1175 122 1203 100Q1223 86 1257.0 76.5Q1291 67 1317 66L1302 0Z"/>
    </g>
</svg>
