<svg xmlns="http://www.w3.org/2000/svg" viewBox="0 -665 622 864">
    <g transform="scale(1, -1)">
        <path d="M573 285Q566 279 544.0 274.5Q522 270 514 269Q522 231 522 232Q529 207 537 163Q555 62 574 -9Q579 -32 579 -36Q579 -46 571.0 -53.0Q563 -60 552 -60Q542 -60 534.0 -49.5Q526 -39 523 -31Q514 3 506.5 45.0Q499 87 489 146Q485 172 476.0 210.5Q467 249 464 261Q405 253 261 229L203 219L182 160L154 80Q119 -29 104 -88Q101 -102 92.0 -111.5Q83 -121 70 -121Q59 -121 51.5 -115.0Q44 -109 44 -98Q44 -87 56.0 -51.5Q68 -16 70 -9Q74 1 86 37Q99 76 119.5 131.5Q140 187 147 205Q96 193 71 186Q33 176 24 176Q13 176 7.5 184.5Q2 193 2 203Q2 215 8.0 219.5Q14 224 28 228Q66 237 108.5 246.0Q151 255 167 258Q177 287 182 307Q186 320 192.5 339.5Q199 359 207 388L222 439Q260 573 266 592Q271 606 275.5 614.0Q280 622 288 622Q308 622 324 616Q326 618 330.5 624.5Q335 631 340.5 633.5Q346 636 355 636Q373 636 396.5 595.0Q420 554 442 498Q455 465 475.0 399.5Q495 334 501 313Q516 315 526.5 318.5Q537 322 540 323Q545 325 551.0 330.0Q557 335 562.0 337.5Q567 340 573 337Q586 331 586 312Q586 305 582.5 297.0Q579 289 573 285ZM404 474Q390 511 368.0 550.0Q346 589 331 599L320 573Q301 535 291 504Q267 432 215 266L332 286L428 301L455 305Q450 323 434.0 380.5Q418 438 404 474Z"/>
    </g>
</svg>
