<svg xmlns="http://www.w3.org/2000/svg" viewBox="0 -1549 1374 1993">
    <g transform="scale(1, -1)">
        <path d="M1421 0H830V71Q908 76 959.5 91.0Q1011 106 1011 128Q1011 137 1009.0 150.0Q1007 163 1003 173L885 491H388Q360 421 342.5 369.0Q325 317 311 273Q298 230 293.0 203.0Q288 176 288 159Q288 119 351.0 97.0Q414 75 493 71V0H-41V71Q-15 73 24.0 82.5Q63 92 88 108Q128 135 150.0 164.5Q172 194 193 246Q300 513 429.0 846.0Q558 1179 659 1439H739L1212 215Q1227 176 1246.0 152.0Q1265 128 1299 105Q1322 91 1359.0 81.5Q1396 72 1421 71ZM849 580 634 1130 423 580Z"/>
    </g>
</svg>
