<svg xmlns="http://www.w3.org/2000/svg" viewBox="0 -1831 1431 2335">
    <g transform="scale(1, -1)">
        <path d="M534 569H900L703 1137H697L482 607Q475 590 488.5 579.5Q502 569 534 569ZM302 141Q293 123 295.5 108.5Q298 94 302.0 84.0Q306 74 319.5 66.0Q333 58 345.0 53.0Q357 48 375.5 45.0Q394 42 409.0 40.0Q424 38 443 37Q452 28 452.0 13.5Q452 -1 443 -10Q413 -9 341.0 -4.5Q269 0 222 0Q178 0 114.5 -4.5Q51 -9 19 -10Q10 -1 10.0 13.5Q10 28 19 37Q94 42 140.5 72.0Q187 102 224 188L699 1307Q735 1307 806 1348L1234 156Q1245 126 1260.5 104.5Q1276 83 1291.0 71.0Q1306 59 1330.5 51.5Q1355 44 1371.5 42.0Q1388 40 1418 37Q1427 28 1427.0 13.5Q1427 -1 1418 -10Q1391 -9 1304.5 -4.5Q1218 0 1170 0Q1124 0 1025.5 -4.5Q927 -9 902 -10Q893 -1 893.0 13.5Q893 28 902 37Q1000 44 1024 53Q1073 71 1054 127L924 504H497Q463 504 448.5 493.0Q434 482 425 459Z"/>
    </g>
</svg>
