<svg xmlns="http://www.w3.org/2000/svg" viewBox="0 -1831 1454 2335">
    <g transform="scale(1, -1)">
        <path d="M649 580H948L881 1065H868L604 606Q595 591 605.5 585.5Q616 580 649 580ZM356 162Q345 142 342.5 126.5Q340 111 349.5 101.0Q359 91 368.5 85.0Q378 79 400.5 75.0Q423 71 435.0 69.5Q447 68 473 66Q480 57 475.0 31.0Q470 5 459 -4Q315 0 199 0Q160 0 12 -4Q5 5 10.5 31.0Q16 57 27 66Q66 69 89.0 73.5Q112 78 141.0 92.0Q170 106 196.0 134.5Q222 163 250 209L881 1257Q947 1257 1114 1348L1292 176Q1294 161 1298.0 148.0Q1302 135 1306.0 125.5Q1310 116 1318.0 108.0Q1326 100 1330.5 94.5Q1335 89 1347.0 84.5Q1359 80 1363.5 78.0Q1368 76 1383.5 73.5Q1399 71 1404 70L1426 68Q1444 66 1448 66Q1455 57 1450.0 31.0Q1445 5 1434 -4Q1290 0 1171 0Q984 0 836 -4Q829 5 833.0 31.0Q837 57 848 66Q860 67 886.5 68.0Q913 69 923.5 70.0Q934 71 953.5 74.0Q973 77 980.5 82.0Q988 87 998.0 95.0Q1008 103 1010.0 116.0Q1012 129 1010 147L965 481H592Q557 481 542.0 474.0Q527 467 516 446Z"/>
    </g>
</svg>
