<svg xmlns="http://www.w3.org/2000/svg" viewBox="0 -1831 1472 2335">
    <g transform="scale(1, -1)">
        <path d="M647 590H963L879 1012L643 614Q629 590 647 590ZM1296 186Q1302 159 1307.0 144.5Q1312 130 1324.5 112.5Q1337 95 1359.5 85.0Q1382 75 1417 70L1446 66Q1466 64 1466 47L1458 0L1454 -4Q1378 0 1298 0L922 -4L918 0L924 47Q927 65 938 66L961 70Q1005 78 1030 96Q1054 115 1047 150L981 494H594Q573 494 555 465L365 150Q346 119 368.5 98.5Q391 78 434 70L457 66Q471 65 471 47L465 0L461 -4Q281 0 207 0L31 -4L27 0L31 47Q32 64 51 66L80 70Q145 79 184.0 112.0Q223 145 253 194L909 1284Q929 1316 957.0 1332.0Q985 1348 1006 1348Q1039 1348 1053.5 1333.0Q1068 1318 1075 1284Z"/>
    </g>
</svg>
