<svg xmlns="http://www.w3.org/2000/svg" viewBox="0 -1831 1515 2335">
    <g transform="scale(1, -1)">
        <path d="M559 580H870L703 1065H689L507 607Q501 592 513.0 586.0Q525 580 559 580ZM338 162Q332 147 331.5 134.0Q331 121 336.0 112.0Q341 103 348.0 96.0Q355 89 368 84L392 76Q402 73 420.0 71.0Q438 69 449.0 68.0Q460 67 479 66Q488 57 488.0 31.0Q488 5 479 -4Q327 0 207 0Q166 0 14 -4Q5 5 5.0 31.0Q5 57 14 66Q54 69 77.0 73.5Q100 78 128.0 92.0Q156 106 177.5 134.5Q199 163 219 209L663 1257Q732 1257 889 1348L1311 176Q1324 141 1341.5 119.0Q1359 97 1383.5 87.0Q1408 77 1427.5 73.5Q1447 70 1481 67Q1490 66 1495 66Q1504 57 1504.0 31.0Q1504 5 1495 -4Q1343 0 1221 0Q1022 0 870 -4Q861 5 861.0 31.0Q861 57 870 66Q883 67 901.5 68.0Q920 69 931.5 69.5Q943 70 958.5 71.5Q974 73 983.0 75.0Q992 77 1002.0 81.0Q1012 85 1017.0 90.5Q1022 96 1025.5 103.5Q1029 111 1028.0 122.0Q1027 133 1022 147L907 481H518Q482 481 468.0 474.0Q454 467 446 446Z"/>
    </g>
</svg>
