<svg xmlns="http://www.w3.org/2000/svg" viewBox="0 -1831 1366 2335">
    <g transform="scale(1, -1)">
        <path d="M629 580H971L887 1126H883L586 606Q581 598 581 594Q581 580 629 580ZM330 162Q315 136 315 114Q315 65 389 59L444 55Q459 55 457 39L453 0L446 -4Q302 0 190 0Q156 0 8 -4L6 0L12 39Q15 55 31 55Q102 60 149.0 90.0Q196 120 250 209L895 1274Q921 1317 937 1332Q954 1348 975 1348Q995 1348 1003.0 1333.5Q1011 1319 1016 1286L1204 176Q1213 116 1240.5 89.5Q1268 63 1327 57L1348 55Q1366 55 1364 39L1360 0L1356 -4Q1212 0 1124 0Q1012 0 864 -4L862 0L866 39Q867 55 883 55L940 59Q1040 66 1040 128Q1040 133 1038 147L987 494H578Q543 494 528.0 487.0Q513 480 502 459Z"/>
    </g>
</svg>
