<svg xmlns="http://www.w3.org/2000/svg" viewBox="0 -1831 1423 2335">
    <g transform="scale(1, -1)">
        <path d="M539 580H901L709 1137H696L487 607Q481 592 493.0 586.0Q505 580 539 580ZM317 162Q311 147 310.5 134.0Q310 121 315.0 111.5Q320 102 327.5 95.0Q335 88 347.5 83.0Q360 78 371.5 74.5Q383 71 400.0 68.5Q417 66 429.5 65.0Q442 64 459 63Q468 54 468.0 29.5Q468 5 459 -4Q307 0 197 0Q166 0 14 -4Q5 5 5.0 29.5Q5 54 14 63Q92 68 137.0 95.0Q182 122 219 209L684 1307Q726 1307 797 1348L1219 176Q1228 151 1239.0 132.5Q1250 114 1267 102L1294 83Q1305 76 1330.0 72.0Q1355 68 1363.5 67.0Q1372 66 1403 63Q1412 54 1412.0 29.5Q1412 5 1403 -4Q1251 0 1169 0Q1053 0 901 -4Q892 5 892.0 29.5Q892 54 901 63Q913 64 932.5 65.0Q952 66 963 67L990 70Q1006 71 1014.0 73.5Q1022 76 1033.0 80.0Q1044 84 1048.5 89.5Q1053 95 1056.5 103.0Q1060 111 1059.0 122.0Q1058 133 1053 147L934 494H502Q466 494 452.0 487.0Q438 480 430 459Z"/>
    </g>
</svg>
