<svg xmlns="http://www.w3.org/2000/svg" viewBox="0 -1831 1431 2335">
    <g transform="scale(1, -1)">
        <path d="M518 590H825L655 1053L479 614Q479 599 485.5 594.5Q492 590 518 590ZM303 162Q292 132 291.0 111.5Q290 91 315.5 79.5Q341 68 399 68Q424 68 433.0 63.5Q442 59 442 47V6L432 -2Q244 2 195 2L20 -2L4 4V47Q4 61 13.5 64.5Q23 68 45 68Q80 68 119.0 98.0Q158 128 182 186L639 1284Q652 1317 677.5 1332.5Q703 1348 725 1348Q793 1348 817 1284L1231 186Q1254 125 1278.5 96.5Q1303 68 1339 68H1397Q1419 68 1423.0 64.0Q1427 60 1427 47V6L1417 -2Q1221 2 1143 2L848 -2L831 8V47Q831 68 885 68H940Q991 68 991 121Q991 144 987 150L860 494H483Q451 494 440.0 489.5Q429 485 420 465Z"/>
    </g>
</svg>
