<svg xmlns="http://www.w3.org/2000/svg" viewBox="0 -1464 1415 1927">
    <g transform="scale(1, -1)">
        <path d="M1093 -11Q1072 -11 1056.0 -3.0Q1040 5 1029.5 18.0Q1019 31 1013.5 48.0Q1008 65 1008 82Q1008 97 1016.0 123.5Q1024 150 1036.5 183.0Q1049 216 1064.0 252.0Q1079 288 1093.0 321.0Q1107 354 1117.0 382.0Q1127 410 1131 426Q1135 444 1141.0 469.0Q1147 494 1154.5 523.5Q1162 553 1169.5 585.5Q1177 618 1185 651Q1171 648 1150.5 645.5Q1130 643 1107 641Q1074 638 1042.0 632.0Q1010 626 976.5 618.5Q943 611 907.0 602.5Q871 594 830 585Q770 572 710.0 556.0Q650 540 585 540Q565 540 548.0 550.5Q531 561 510 566Q490 534 472.0 497.5Q454 461 439.0 422.5Q424 384 412.0 346.5Q400 309 391 276Q386 258 382.5 229.5Q379 201 376.0 171.5Q373 142 370.0 115.0Q367 88 364 72Q361 57 352.0 42.5Q343 28 330.0 16.0Q317 4 301.0 -3.5Q285 -11 269 -11Q241 -11 223.5 5.5Q206 22 195.5 46.5Q185 71 181.0 100.0Q177 129 177 153Q177 214 192.0 279.5Q207 345 232.5 412.5Q258 480 292.5 548.5Q327 617 367 685Q400 746 449.0 826.0Q498 906 558.5 990.5Q619 1075 689.5 1156.0Q760 1237 836.0 1300.5Q912 1364 992.0 1403.0Q1072 1442 1151 1442Q1234 1442 1289.5 1412.0Q1345 1382 1378.0 1331.0Q1411 1280 1424.5 1212.0Q1438 1144 1438 1068Q1438 1001 1429.5 930.0Q1421 859 1408.5 791.0Q1396 723 1381.5 660.0Q1367 597 1355 546L1320 410Q1318 404 1312.5 386.0Q1307 368 1298.5 342.5Q1290 317 1279.5 287.5Q1269 258 1258.5 229.5Q1248 201 1238.5 177.0Q1229 153 1222 138L1223 139Q1216 113 1208.0 86.0Q1200 59 1186.0 37.5Q1172 16 1150.0 2.5Q1128 -11 1093 -11ZM1144 1241Q1099 1241 1054.5 1222.5Q1010 1204 967.0 1174.0Q924 1144 883.5 1104.0Q843 1064 806.5 1022.0Q770 980 738.0 937.5Q706 895 680 859Q676 853 669.5 843.5Q663 834 656.5 822.5Q650 811 644.0 798.5Q638 786 634 776H737Q793 776 865.0 784.0Q937 792 1007.5 803.0Q1078 814 1137.0 825.5Q1196 837 1226 843Q1230 856 1233.5 878.0Q1237 900 1240.0 927.0Q1243 954 1244.5 984.5Q1246 1015 1246 1047Q1246 1073 1244.0 1106.5Q1242 1140 1232.0 1170.0Q1222 1200 1201.5 1220.5Q1181 1241 1144 1241Z"/>
    </g>
</svg>
