<svg xmlns="http://www.w3.org/2000/svg" viewBox="0 -1729 1479 2178">
    <g transform="scale(1, -1)">
        <path d="M937 454H412L320 240Q286 162 286 122Q286 106 291.5 92.5Q297 79 314.0 67.5Q331 56 362.0 48.5Q393 41 443 37V0H16V37Q100 52 126 76Q152 100 179.5 148.5Q207 197 239 271L716 1387H751L1223 259Q1252 189 1276.5 146.5Q1301 104 1327.0 80.5Q1353 57 1383.5 48.0Q1414 39 1456 37V0H921V37Q961 39 988.0 46.0Q1015 53 1030.5 64.0Q1046 75 1052.5 89.0Q1059 103 1059 120Q1060 142 1049.5 176.5Q1039 211 1019 259ZM909 528 679 1076 443 528Z"/>
    </g>
</svg>
