<svg xmlns="http://www.w3.org/2000/svg" viewBox="0 -1536 1185 2048">
    <g transform="scale(1, -1)">
        <path d="M1141 61Q1149 39 1149.5 25.5Q1150 12 1142.0 5.0Q1134 -2 1115.5 -4.0Q1097 -6 1066 -6Q1035 -6 1016.5 -4.5Q998 -3 988.5 0.5Q979 4 974.5 10.0Q970 16 966 25L855 340H317L211 29Q208 20 203.0 13.5Q198 7 188.5 2.5Q179 -2 161.5 -4.0Q144 -6 116 -6Q87 -6 68.5 -3.5Q50 -1 42.5 6.0Q35 13 35.5 26.5Q36 40 44 62L478 1264Q482 1275 488.5 1282.0Q495 1289 507.5 1293.0Q520 1297 539.5 1298.5Q559 1300 589 1300Q621 1300 642.0 1298.5Q663 1297 676.0 1293.0Q689 1289 696.0 1281.5Q703 1274 707 1263ZM584 1122H583L360 477H810Z"/>
    </g>
</svg>
