<svg xmlns="http://www.w3.org/2000/svg" viewBox="0 -1536 1241 2048">
    <g transform="scale(1, -1)">
        <path d="M1201 98Q1213 62 1216.0 41.0Q1219 20 1208.0 9.5Q1197 -1 1169.0 -3.5Q1141 -6 1092 -6Q1041 -6 1012.5 -4.5Q984 -3 969.0 1.5Q954 6 948.0 14.0Q942 22 938 35L851 295H365L283 42Q279 28 272.5 18.5Q266 9 251.5 3.5Q237 -2 210.5 -4.0Q184 -6 141 -6Q95 -6 69.0 -3.0Q43 0 33.0 11.5Q23 23 26.0 44.0Q29 65 41 100L440 1248Q446 1265 454.0 1275.5Q462 1286 479.5 1291.5Q497 1297 528.0 1298.5Q559 1300 610 1300Q669 1300 704.0 1298.5Q739 1297 758.5 1291.5Q778 1286 786.5 1275.0Q795 1264 801 1245ZM607 1047H606L423 497H790Z"/>
    </g>
</svg>
