<svg xmlns="http://www.w3.org/2000/svg" viewBox="0 -1068 705 1360">
    <g transform="scale(1, -1)">
        <path d="M-56 0 -48 42H-29Q-10 42 4.0 48.0Q18 54 31.5 71.0Q45 88 64 120L412 714H490L585 95Q590 64 602.5 53.0Q615 42 644 42H657L649 0H377L385 42H408Q440 42 460.0 55.5Q480 69 480 93Q480 101 479.5 110.5Q479 120 478 127L462 239H200L139 134Q120 99 120 78Q120 42 176 42H199L191 0ZM336 473 229 289H455L430 464Q424 508 419.5 547.0Q415 586 414 622Q398 586 380.5 553.0Q363 520 336 473Z"/>
    </g>
</svg>
