<svg xmlns="http://www.w3.org/2000/svg" viewBox="0 -1068 677 1360">
    <g transform="scale(1, -1)">
        <path d="M-58 0 -52 32H-34Q-12 32 2.0 37.0Q16 42 29.0 59.0Q42 76 62 110L415 714H461L558 101Q565 56 575.5 44.0Q586 32 614 32H630L623 0H392L399 32H427Q490 32 490 78Q490 88 489.0 100.0Q488 112 487 118L468 244H190L120 124Q110 106 103.5 89.0Q97 72 97 62Q97 45 109.0 38.5Q121 32 151 32H182L176 0ZM328 482 212 283H462L434 473Q428 517 422.0 562.5Q416 608 414 644Q398 608 377.0 568.5Q356 529 328 482Z"/>
    </g>
</svg>
