<svg xmlns="http://www.w3.org/2000/svg" viewBox="0 -1536 1185 2048">
    <g transform="scale(1, -1)">
        <path d="M1060 61Q1063 39 1061.5 25.5Q1060 12 1050.5 5.0Q1041 -2 1021.0 -4.0Q1001 -6 967 -6Q945 -6 929.0 -4.5Q913 -3 904.5 0.5Q896 4 892.0 10.0Q888 16 887 25L839 340H300L131 28Q126 18 119.5 11.5Q113 5 101.5 1.0Q90 -3 71.5 -4.5Q53 -6 26 -6Q-4 -6 -22.0 -3.5Q-40 -1 -47.0 6.0Q-54 13 -51.0 26.5Q-48 40 -37 62L637 1264Q644 1275 652.0 1282.0Q660 1289 673.0 1293.0Q686 1297 706.0 1298.5Q726 1300 755 1300Q788 1300 808.5 1298.5Q829 1297 841.5 1293.0Q854 1289 859.0 1281.5Q864 1274 866 1263ZM723 1122H722L372 477H820Z"/>
    </g>
</svg>
