<svg xmlns="http://www.w3.org/2000/svg" viewBox="0 -1068 678 1360">
    <g transform="scale(1, -1)">
        <path d="M-2 0V32H19Q40 32 52.0 36.5Q64 41 72.0 54.5Q80 68 90 96L312 714H368L592 83Q603 51 616.0 41.5Q629 32 661 32H678V0H435V32H463Q496 32 508.0 41.5Q520 51 520 71Q520 83 514.0 103.5Q508 124 503 136L465 244H190L153 140Q148 127 141.5 105.5Q135 84 135 71Q135 51 148.5 41.5Q162 32 196 32H233V0ZM204 283H451L382 483Q367 525 352.5 569.5Q338 614 329 648Q322 618 307.5 575.0Q293 532 279 492Z"/>
    </g>
</svg>
