<svg xmlns="http://www.w3.org/2000/svg" viewBox="0 -1068 753 1360">
    <g transform="scale(1, -1)">
        <path d="M4 0V53H16Q43 53 61.5 67.0Q80 81 96 126L313 714H450L659 125Q674 83 692.5 68.0Q711 53 735 53H753V0H423V53H462Q477 53 491.0 62.0Q505 71 505 92Q505 104 502.0 115.5Q499 127 496 135L461 235H218L189 149Q185 137 181.0 120.5Q177 104 177 92Q177 72 191.0 62.5Q205 53 222 53H264V0ZM239 296H441L388 460Q378 494 365.5 536.0Q353 578 345 613Q336 581 323.0 540.5Q310 500 298 465Z"/>
    </g>
</svg>
