<svg xmlns="http://www.w3.org/2000/svg" viewBox="0 -1068 658 1360">
    <g transform="scale(1, -1)">
        <path d="M-41 0 -30 51H-11Q13 51 27.5 66.0Q42 81 67 129L376 714H502L556 131Q559 95 570.0 73.0Q581 51 608 51H624L612 0H320L331 51H351Q380 51 396.5 63.0Q413 75 413 103Q413 109 412.5 115.5Q412 122 412 127L404 236H196L150 143Q140 124 136.0 110.0Q132 96 132 86Q132 51 180 51H196L185 0ZM316 475 226 295H400L388 466Q386 510 383.5 545.5Q381 581 382 617Q368 581 354.0 551.5Q340 522 316 475Z"/>
    </g>
</svg>
