<svg xmlns="http://www.w3.org/2000/svg" viewBox="0 -1068 614 1360">
    <g transform="scale(1, -1)">
        <path d="M-47 0 -39 41H-22Q3 41 18.5 56.0Q34 71 60 119L375 714H452L512 111Q516 73 526.5 57.0Q537 41 562 41H574L566 0H324L332 41H352Q380 41 397.5 56.5Q415 72 415 103Q415 108 415.0 115.0Q415 122 414 127L404 240H182L127 133Q117 114 113.5 100.0Q110 86 110 75Q110 41 156 41H176L167 0ZM305 479 207 289H400L384 470Q380 514 377.5 553.0Q375 592 376 628Q362 592 346.0 559.0Q330 526 305 479Z"/>
    </g>
</svg>
