<svg xmlns="http://www.w3.org/2000/svg" viewBox="0 -1068 753 1360">
    <g transform="scale(1, -1)">
        <path d="M-49 0 -38 53H-17Q2 53 14.5 59.5Q27 66 40.5 83.0Q54 100 72 131L411 714H548L632 125Q636 94 649.0 73.5Q662 53 693 53H711L700 0H370L381 53H404Q436 53 455.0 63.0Q474 73 474 95Q474 103 473.5 111.5Q473 120 472 127L459 235H215L165 145Q146 110 146 89Q146 53 202 53H222L211 0ZM347 473 249 296H452L432 464Q428 508 424.0 542.5Q420 577 419 613Q409 589 399.0 569.0Q389 549 376.5 526.5Q364 504 347 473Z"/>
    </g>
</svg>
