<svg xmlns="http://www.w3.org/2000/svg" viewBox="0 -2300 1350 3600">
    <g transform="scale(1, -1)">
        <path d="M188 268 614 1248Q624 1270 648.5 1297.0Q673 1324 688 1324Q701 1324 714.0 1319.5Q727 1315 730 1310L1140 296Q1154 263 1171.0 217.5Q1188 172 1196 152Q1208 124 1232.0 104.5Q1256 85 1283.0 78.0Q1310 71 1326.0 68.5Q1342 66 1354 66Q1361 53 1362.5 25.5Q1364 -2 1358 -8Q1340 -7 1241.0 0.5Q1142 8 1090 8Q1049 8 993.0 5.0Q937 2 872.0 -2.5Q807 -7 788 -8Q780 0 780.0 33.0Q780 66 788 66Q817 66 851.5 75.5Q886 85 906 102Q924 117 924 136Q924 144 894.0 220.0Q864 296 834 368L804 440Q796 448 790 448Q752 450 598 450Q460 450 390 448Q381 448 376 438Q326 326 304 270Q260 160 260 134Q260 116 281.5 101.5Q303 87 331.5 80.0Q360 73 382.5 69.5Q405 66 414 66Q422 54 421.5 26.5Q421 -1 416 -8Q276 8 200 8Q122 8 -18 -8Q-24 -2 -26.0 22.5Q-28 47 -22 64Q0 64 52.0 85.0Q104 106 118 128Q152 184 188 268ZM590 952 420 560Q420 552 424 552Q484 546 590 546Q688 546 750 550Q752 550 754 552Q756 556 756 558V560Z"/>
    </g>
</svg>
