<svg xmlns="http://www.w3.org/2000/svg" viewBox="0 -1536 1154 2048">
    <g transform="scale(1, -1)">
        <path d="M1108 41Q1114 26 1113.5 16.5Q1113 7 1106.5 2.0Q1100 -3 1086.5 -4.5Q1073 -6 1052 -6Q1031 -6 1018.5 -4.5Q1006 -3 999.0 0.0Q992 3 988.5 8.0Q985 13 982 20L858 365H290L171 22Q169 15 165.0 10.0Q161 5 154.0 1.5Q147 -2 134.5 -4.0Q122 -6 103 -6Q82 -6 68.0 -4.0Q54 -2 47.5 3.0Q41 8 40.5 17.0Q40 26 46 41L499 1272Q502 1280 508.0 1285.5Q514 1291 523.5 1294.0Q533 1297 546.5 1298.5Q560 1300 577 1300Q595 1300 608.5 1298.5Q622 1297 631.5 1294.0Q641 1291 646.5 1285.5Q652 1280 655 1272ZM571 1163H570L326 467H821Z"/>
    </g>
</svg>
