<svg xmlns="http://www.w3.org/2000/svg" viewBox="0 -1499 1593 2081">
    <g transform="scale(1, -1)">
        <path d="M44 -8 35 0V52L44 60Q117 61 138.0 67.5Q159 74 175.5 93.5Q192 113 242 221L347 449L619 1065Q696 1246 772 1427H837L1264 423L1321 289Q1346 232 1378.5 165.0Q1411 98 1423.5 86.0Q1436 74 1454.5 67.5Q1473 61 1537 60L1545 52V0L1537 -8Q1431 1 1346 1Q1180 -4 1014 -8L1006 0V52L1014 60Q1126 62 1154.0 69.5Q1182 77 1182 104Q1182 126 1168 162L1045 467H466L357 211Q328 142 328 110Q328 85 355.0 73.0Q382 61 491 60L500 52V0L492 -8Q363 0 266 0Q156 0 44 -8ZM500 553H1006L755 1156ZM803 1487ZM780 -60Z"/>
    </g>
</svg>
