<svg xmlns="http://www.w3.org/2000/svg" viewBox="0 -1536 1154 2048">
    <g transform="scale(1, -1)">
        <path d="M1023 41Q1026 26 1024.0 16.5Q1022 7 1014.5 2.0Q1007 -3 993.0 -4.5Q979 -6 957 -6Q943 -6 931.5 -4.5Q920 -3 913.5 0.0Q907 3 904.0 8.0Q901 13 900 20L845 365H277L88 20Q85 13 80.0 8.0Q75 3 66.5 0.0Q58 -3 44.5 -4.5Q31 -6 13 -6Q-8 -6 -22.0 -4.0Q-36 -2 -42.5 3.0Q-49 8 -48.0 17.0Q-47 26 -39 41L660 1272Q665 1280 672.0 1285.5Q679 1291 689.0 1294.0Q699 1297 712.5 1298.5Q726 1300 743 1300Q761 1300 774.0 1298.5Q787 1297 796.5 1294.0Q806 1291 810.5 1285.5Q815 1280 816 1272ZM717 1163H716L333 467H828Z"/>
    </g>
</svg>
