<svg xmlns="http://www.w3.org/2000/svg" viewBox="0 -1499 1479 2081">
    <g transform="scale(1, -1)">
        <path d="M-14 -8 -21 0 -14 44 -5 51 53 60Q78 64 87.0 69.0Q96 74 106.0 86.0Q116 98 151.0 150.0Q186 202 243 293L265 325L957 1420H1051L1219 212Q1233 111 1244.0 90.0Q1255 69 1277.0 64.0Q1299 59 1391 51L1397 43L1389 0L1380 -8Q1240 0 1139 0Q1071 0 900 -8L893 0L900 43L909 51Q1033 56 1050.5 66.0Q1068 76 1068 109Q1068 117 1054 263L1015 559H516L375 325Q355 292 311.5 213.0Q268 134 261.5 117.5Q255 101 255 91Q255 74 274.5 65.5Q294 57 421 52L427 44L420 0L411 -8Q295 0 193 0Q109 0 -14 -8ZM566 637H1006L930 1218ZM1008 1477ZM684 -109Z"/>
    </g>
</svg>
