<svg xmlns="http://www.w3.org/2000/svg" viewBox="0 -1499 1479 2081">
    <g transform="scale(1, -1)">
        <path d="M-61 -8 -68 1 -61 53 -51 61Q27 67 38.5 69.5Q50 72 62.0 81.0Q74 90 86.0 107.5Q98 125 163 237L280 436L563 923L736 1214Q812 1340 848 1411H1043L1084 1113L1131 783L1170 513L1201 311L1221 190Q1232 108 1255.0 85.0Q1278 62 1398 61L1405 52L1399 1L1389 -8Q1163 0 1087 0Q1021 0 795 -8L787 1L795 52L805 61Q902 61 929.0 76.0Q956 91 956 124Q956 194 908 545Q817 546 789 546L636 545H456Q397 443 331.0 315.5Q265 188 252.5 153.5Q240 119 240 107Q240 89 261.0 76.5Q282 64 409 61L416 52L409 0L399 -8Q398 -8 326 -4Q230 0 180 0Q151 0 -61 -8ZM504 636Q552 635 562 635Q873 635 897 636L819 1177ZM958 1492ZM598 -65Z"/>
    </g>
</svg>
