<svg xmlns="http://www.w3.org/2000/svg" viewBox="0 -1499 1593 2081">
    <g transform="scale(1, -1)">
        <path d="M1544 4 1535 -6Q1313 0 1267 0Q1083 0 925 -6L916 4V67L926 78L1013 83Q1068 86 1068 122Q1068 143 1040 216L959 427Q821 429 677 429Q599 429 445 427L401 305Q351 166 351 131Q351 93 398 86Q424 82 500 78L510 68V4L500 -6Q315 0 262 0Q221 0 59 -6L49 3V68L60 78Q163 84 186.5 119.0Q210 154 363 536L624 1189Q653 1265 712 1418H854L1384 171Q1415 100 1440 91Q1473 79 1535 79L1544 68ZM910 542 696 1066 491 542Q573 539 704 539Q831 539 910 542ZM783 1468ZM750 -78Z"/>
    </g>
</svg>
