<svg xmlns="http://www.w3.org/2000/svg" viewBox="0 -2071 1116 3457">
    <g transform="scale(1, -1)">
        <path d="M595 0V60Q662 60 688.5 71.0Q715 82 715 108Q715 114 713.0 125.5Q711 137 703.5 159.5Q696 182 682.0 218.5Q668 255 643 311H316Q299 269 286 234Q275 204 265.5 176.5Q256 149 256 141Q256 103 288.5 84.0Q321 65 392 60V0H12V60Q38 65 58.5 72.5Q79 80 97.5 96.5Q116 113 133.0 141.5Q150 170 169 215L510 1044H570L949 181Q964 147 983.0 124.5Q1002 102 1023.0 87.5Q1044 73 1065.5 67.0Q1087 61 1107 60V0ZM469 700 348 399H604Z"/>
    </g>
</svg>
