<svg xmlns="http://www.w3.org/2000/svg" viewBox="0 -1536 1241 2048">
    <g transform="scale(1, -1)">
        <path d="M1126 98Q1131 62 1130.5 41.0Q1130 20 1116.5 9.5Q1103 -1 1072.0 -3.5Q1041 -6 987 -6Q949 -6 925.0 -4.5Q901 -3 888.0 1.0Q875 5 870.0 13.0Q865 21 864 35L829 295H343L209 41Q202 27 193.0 17.5Q184 8 167.0 3.0Q150 -2 121.5 -4.0Q93 -6 50 -6Q4 -6 -21.5 -3.0Q-47 0 -55.5 11.5Q-64 23 -57.5 44.0Q-51 65 -32 100L596 1248Q606 1265 616.0 1275.5Q626 1286 644.5 1291.5Q663 1297 694.5 1298.5Q726 1300 777 1300Q836 1300 870.5 1298.5Q905 1297 924.0 1291.5Q943 1286 949.0 1275.0Q955 1264 957 1245ZM733 1047H732L443 497H807Z"/>
    </g>
</svg>
