<svg xmlns="http://www.w3.org/2000/svg" viewBox="0 -1528 1714 2022">
    <g transform="scale(1, -1)">
        <path d="M1004 596Q1048 607 1093.5 619.0Q1139 631 1178 643Q1162 692 1145.0 745.0Q1128 798 1109.5 850.5Q1091 903 1072.0 952.5Q1053 1002 1032 1043Q947 927 861.5 799.0Q776 671 699 538Q729 541 762.0 542.5Q795 544 815 550Q842 558 863.5 564.0Q885 570 906.5 575.0Q928 580 951.0 585.0Q974 590 1004 596ZM1672 92Q1672 67 1662.5 45.0Q1653 23 1636.5 6.5Q1620 -10 1596.5 -20.0Q1573 -30 1546 -30Q1521 -30 1497.0 -14.0Q1473 2 1450.5 27.0Q1428 52 1407.5 83.5Q1387 115 1370.5 147.0Q1354 179 1341.0 208.0Q1328 237 1320 256Q1309 283 1298.0 306.0Q1287 329 1275 365Q1268 385 1264.5 395.0Q1261 405 1258.5 410.5Q1256 416 1254.5 419.5Q1253 423 1251 430Q1231 421 1208.0 419.5Q1185 418 1157 418Q1152 418 1140.0 414.5Q1128 411 1112.5 406.0Q1097 401 1080.5 395.5Q1064 390 1049 386Q1001 374 945.0 363.0Q889 352 828.0 341.5Q767 331 703.5 320.5Q640 310 576 299Q569 298 564.0 295.0Q559 292 550.0 279.5Q541 267 523.0 241.0Q505 215 472 167Q434 112 400.0 71.5Q366 31 336 2Q307 -27 274.5 -42.0Q242 -57 207 -57Q161 -57 125.0 -45.5Q89 -34 64.5 -16.0Q40 2 27.5 23.0Q15 44 15 62Q15 96 44.0 109.5Q73 123 124 132Q124 133 135.0 147.0Q146 161 161.0 179.0Q176 197 190.5 214.5Q205 232 211 241Q250 295 292.5 353.5Q335 412 386 488V487Q412 525 428.5 550.0Q445 575 460.0 597.0Q475 619 491.5 642.0Q508 665 532 699Q594 786 640.5 846.5Q687 907 717 947Q753 1003 785 1054Q799 1076 812.0 1098.5Q825 1121 837.0 1142.0Q849 1163 858.5 1181.5Q868 1200 873 1213Q992 1504 1077 1504Q1114 1504 1137.0 1498.5Q1160 1493 1172.5 1479.5Q1185 1466 1189.5 1444.0Q1194 1422 1194 1389Q1194 1358 1194.0 1340.5Q1194 1323 1193.0 1310.0Q1192 1297 1191.5 1284.0Q1191 1271 1189 1249Q1213 1198 1235.5 1144.0Q1258 1090 1278 1037Q1282 1025 1295.5 986.5Q1309 948 1327.5 896.0Q1346 844 1366.5 786.0Q1387 728 1404.5 677.0Q1422 626 1435.0 589.0Q1448 552 1452 542Q1465 486 1525 357Q1533 341 1538.5 329.0Q1544 317 1551.5 304.0Q1559 291 1571.0 274.0Q1583 257 1603 230Q1672 136 1672 92Z"/>
    </g>
</svg>
