<svg xmlns="http://www.w3.org/2000/svg" viewBox="0 -1740 1588 2378">
    <g transform="scale(1, -1)">
        <path d="M404 323Q387 281 299.5 137.5Q212 -6 178.0 -22.5Q144 -39 118 -39Q82 -39 31.5 0.5Q-19 40 -19 82Q-19 121 232 503Q369 712 482 917Q709 1331 759.5 1398.5Q810 1466 863 1466Q948 1466 986 1422Q1005 1408 1005 1355Q1005 1316 998 1292Q1181 734 1284.5 502.5Q1388 271 1492 167Q1544 115 1555.5 97.0Q1567 79 1567 49Q1567 -6 1527.0 -43.5Q1487 -81 1432 -81Q1356 -81 1277.5 7.0Q1199 95 1129.5 249.0Q1060 403 1060 422Q1060 426 1055 426Q1001 426 814.5 388.0Q628 350 515 314Q486 305 464 305Q425 305 404 323ZM980 629Q956 688 838 1049Q827 1082 823 1091L539 551Q602 562 668 571Q712 576 892 613Q936 622 980 629Z"/>
    </g>
</svg>
