<svg xmlns="http://www.w3.org/2000/svg" viewBox="0 -1526 1714 2020">
    <g transform="scale(1, -1)">
        <path d="M1667 66Q1667 26 1641.5 -2.5Q1616 -31 1575 -31Q1557 -31 1546 -23Q1532 -12 1515.0 6.5Q1498 25 1479 53Q1442 110 1411.5 172.5Q1381 235 1362 283Q1357 297 1351.5 308.5Q1346 320 1340.5 332.5Q1335 345 1329.0 359.5Q1323 374 1316 395Q1287 481 1274 508Q1260 494 1247.0 486.5Q1234 479 1219.5 475.5Q1205 472 1189.5 471.5Q1174 471 1156 471Q1146 471 1131.0 467.0Q1116 463 1098.5 458.0Q1081 453 1064.0 447.0Q1047 441 1032 437Q982 423 931.0 412.0Q880 401 826.0 390.5Q772 380 713.0 370.5Q654 361 588 350Q558 345 531 311Q505 276 423 161Q343 47 287 -6Q232 -59 180 -59Q114 -59 70 -33Q20 -1 20 35Q20 54 41.5 62.5Q63 71 100 78Q112 79 155 127Q196 173 217 203Q259 258 302.5 320.5Q346 383 400 461Q426 501 446.0 530.0Q466 559 479 579Q493 599 510.5 624.0Q528 649 551 680Q561 694 575.0 714.0Q589 734 608 759Q627 785 642.5 805.0Q658 825 669 841Q681 857 699.5 881.0Q718 905 743 938Q751 948 774.5 985.0Q798 1022 838 1087Q894 1180 911 1223Q1028 1507 1087 1507Q1113 1507 1129.0 1502.5Q1145 1498 1154.0 1487.5Q1163 1477 1166.0 1459.5Q1169 1442 1169 1417Q1169 1400 1169.0 1387.0Q1169 1374 1168 1366Q1167 1350 1166.0 1325.0Q1165 1300 1163 1266Q1213 1161 1258 1040Q1281 979 1306.5 906.5Q1332 834 1361 747Q1390 661 1412.0 600.0Q1434 539 1448 501Q1462 463 1481.5 414.0Q1501 365 1528 303Q1538 280 1603 192Q1667 104 1667 66ZM1224 657Q1206 712 1185.0 775.5Q1164 839 1141.5 902.5Q1119 966 1095.5 1025.0Q1072 1084 1049 1130Q993 1054 943.0 984.0Q893 914 846.5 843.5Q800 773 754.5 699.0Q709 625 662 541Q673 537 682 537Q697 537 720.5 539.5Q744 542 768.5 545.5Q793 549 815.5 553.0Q838 557 852 560Q876 566 893.5 570.0Q911 574 927.0 578.0Q943 582 961.5 586.5Q980 591 1006 597Q1064 612 1121.0 627.5Q1178 643 1224 657Z"/>
    </g>
</svg>
