<svg xmlns="http://www.w3.org/2000/svg" viewBox="0 -2071 1110 3457">
    <g transform="scale(1, -1)">
        <path d="M694 0V29Q711 29 729.0 31.5Q747 34 762.0 41.0Q777 48 787.0 60.5Q797 73 797 94Q797 114 785.0 150.0Q773 186 758.0 224.0Q743 262 728.0 295.0Q713 328 707 342H311Q307 334 298.5 315.5Q290 297 279.0 273.5Q268 250 257.0 224.0Q246 198 236.5 173.0Q227 148 221.0 127.0Q215 106 215 94Q215 74 228.0 61.5Q241 49 260.0 42.0Q279 35 299.0 32.5Q319 30 334 29V0H12V29Q48 31 73.0 45.5Q98 60 117.0 83.5Q136 107 150.5 137.5Q165 168 180 203L541 1044H567L922 197Q937 162 950.5 132.5Q964 103 983.0 80.5Q1002 58 1029.0 44.5Q1056 31 1098 29V0ZM512 813 334 397H686Z"/>
    </g>
</svg>
