<svg xmlns="http://www.w3.org/2000/svg" viewBox="0 -1753 1592 2392">
    <g transform="scale(1, -1)">
        <path d="M968 1431Q977 1424 977 1382Q977 1339 968 1317L981 1275Q1014 1157 1046 1081Q1086 979 1125 862Q1214 593 1310.5 401.5Q1407 210 1487 132Q1537 83 1549.5 64.5Q1562 46 1562 21Q1562 -23 1532.5 -53.5Q1503 -84 1462 -84Q1334 -84 1152 319Q1079 478 1064 478Q1016 478 857.5 449.0Q699 420 568 381Q493 358 473 358Q448 358 421 383Q416 387 409 387Q387 387 314 257Q194 42 162.5 0.5Q131 -41 93 -41Q66 -41 28.0 -9.5Q-10 22 -10 55Q-10 87 26.0 141.5Q62 196 173 361Q371 654 507 911Q722 1320 780.0 1393.5Q838 1467 869 1467Q935 1467 968 1431ZM1029 636Q994 716 926 929Q852 1156 832 1205Q777 1089 662 876L481 533Q502 549 592 559Q661 566 712 577Q985 632 1029 636Z"/>
    </g>
</svg>
