<svg xmlns="http://www.w3.org/2000/svg" viewBox="0 -1593 1205 2048">
    <g transform="scale(1, -1)">
        <path d="M678 0 689 49Q734 53 759.5 75.0Q785 97 795.5 136.0Q806 175 806 239Q806 278 803 324L796 453H356L301 355Q262 286 244.0 236.5Q226 187 226 149Q226 65 327 49L316 0H-93L-82 49Q-51 53 -23.5 73.5Q4 94 35.0 135.5Q66 177 122 273L763 1381H914L986 266Q991 187 1004.0 142.5Q1017 98 1039.5 76.5Q1062 55 1105 49L1094 0ZM401 540H792L775 862Q772 928 770.0 1027.0Q768 1126 768 1170H757Z"/>
    </g>
</svg>
