<svg xmlns="http://www.w3.org/2000/svg" viewBox="0 -1593 1258 2048">
    <g transform="scale(1, -1)">
        <path d="M750 423H359L345 398Q322 358 305.5 325.5Q289 293 276.0 259.5Q263 226 257.5 199.5Q252 173 252 149Q252 77 337 66L322 0H-100L-85 66Q-50 74 -23.5 93.0Q3 112 27.0 144.5Q51 177 95 256L716 1372H1004L1047 303Q1049 242 1054.0 206.5Q1059 171 1067.0 146.0Q1075 121 1086.5 104.0Q1098 87 1116.0 78.0Q1134 69 1156 66L1141 0H624L639 66Q683 69 708.5 88.5Q734 108 744.0 141.5Q754 175 754 235Q754 278 752 325ZM421 540H747L743 780Q741 908 741 992Q741 1056 742 1123H730Z"/>
    </g>
</svg>
