<svg xmlns="http://www.w3.org/2000/svg" viewBox="0 -1510 1454 2086">
    <g transform="scale(1, -1)">
        <path d="M698 1102Q694 1108 690 1108Q684 1108 682 1102L489 612Q483 598 498 598H868Q884 598 879 612ZM897 0Q887 0 887 10V63Q887 74 897 74L1057 90Q1063 90 1065 94Q1067 98 1065 104L913 506Q909 512 905 512H459Q454 511 451 506L289 100Q284 87 299 86L453 74Q463 73 463 63V10Q463 0 453 0H10Q0 0 0 10V63Q0 74 10 74L178 90Q183 91 186 96L707 1407Q711 1413 715 1413H766Q771 1412 774 1407L1253 98Q1255 92 1262 92L1425 74Q1434 74 1434 63V10Q1434 0 1423 0Z"/>
    </g>
</svg>
