<svg xmlns="http://www.w3.org/2000/svg" viewBox="0 -2300 1240 3600">
    <g transform="scale(1, -1)">
        <path d="M123 268 711 1248Q725 1270 752.0 1297.0Q779 1324 793 1324Q805 1324 816.0 1319.5Q827 1315 829 1310L1015 296Q1022 262 1029.0 216.0Q1036 170 1039 152Q1045 124 1063.5 104.5Q1082 85 1106.0 78.0Q1130 71 1144.0 68.5Q1158 66 1169 66Q1173 53 1168.0 25.5Q1163 -2 1157 -8Q1140 -7 1049.5 0.5Q959 8 911 8Q873 8 820.0 5.0Q767 2 706.0 -2.5Q645 -7 627 -8Q621 -1 628.0 32.5Q635 66 643 66Q670 66 704.0 75.5Q738 85 759 102Q780 117 783 136Q785 144 771.5 220.0Q758 296 744 368L729 440Q725 448 719 448Q684 450 541 450Q413 450 347 448Q336 448 331 438Q263 326 231 270Q168 158 165 134Q162 116 179.0 101.5Q196 87 221.5 80.0Q247 73 267.0 69.5Q287 66 295 66Q301 56 294.5 27.5Q288 -1 281 -8Q153 8 83 8Q11 8 -121 -8Q-126 -3 -123.0 22.5Q-120 48 -111 64Q-90 64 -37.5 85.0Q15 106 31 128Q68 177 123 268ZM631 952 395 560Q395 552 399 552Q453 546 551 546Q643 546 701 550Q703 550 705 552Q707 556 708 558L709 560Z"/>
    </g>
</svg>
