<svg xmlns="http://www.w3.org/2000/svg" viewBox="0 -1802 1470 2048">
    <g transform="scale(1, -1)">
        <path d="M906 608Q768 616 672 616Q593 616 418 608L340 393Q306 298 306 235Q306 197 319 164Q340 114 478 98Q496 98 496 72Q496 45 473 45Q398 49 218 49Q70 49 3 45Q-20 45 -20 72Q-20 98 3 98Q65 108 123 162Q182 220 248 401L494 1065Q586 1313 642 1495L803 1569Q825 1569 830 1550Q845 1504 1000 1053L1231 385Q1293 202 1334 152Q1360 119 1388 110Q1409 103 1466 98Q1493 98 1493 72Q1493 45 1466 45Q1284 49 1176 49Q1070 49 887 45Q871 45 871 72Q871 98 887 98Q1015 105 1029 152Q1035 170 1035 191Q1035 243 992 367ZM133 98ZM240 98ZM1082 98ZM1333 98ZM668 1317 576 1053 445 690Q512 686 672 686Q818 686 877 690L754 1049Q721 1143 668 1317Z"/>
    </g>
</svg>
