<svg xmlns="http://www.w3.org/2000/svg" viewBox="0 -1802 1380 2048">
    <g transform="scale(1, -1)">
        <path d="M926 653Q844 658 689 658Q510 658 410 653L320 405Q266 257 266 193Q266 170 272 155Q286 125 327 114Q346 109 416 102Q437 100 437 79Q437 59 416 59Q298 65 212 65Q104 65 -2 59Q-20 59 -20 79Q-20 99 -2 102Q90 114 127 157Q160 196 240 413L476 1055Q609 1416 642 1516L725 1555Q734 1555 740 1538Q880 1111 904 1044L1135 397Q1205 202 1239 155Q1261 125 1302 113Q1324 107 1381 102Q1401 100 1401 79Q1401 59 1381 59Q1235 67 1147 67Q1062 67 920 59Q900 59 900 79Q900 100 920 102Q1047 113 1065 153Q1073 171 1073 195Q1073 243 1024 379ZM124 102ZM217 102ZM1119 102ZM1240 102ZM670 1387Q656 1346 614 1228Q569 1102 549 1047L435 723Q519 719 689 719Q826 719 902 723L789 1044Q764 1114 718 1249Q684 1347 670 1387Z"/>
    </g>
</svg>
