<svg xmlns="http://www.w3.org/2000/svg" viewBox="0 -1802 1448 2048">
    <g transform="scale(1, -1)">
        <path d="M920 635Q776 643 686 643Q550 643 430 635L346 406Q299 281 299 217Q299 165 335 145Q371 126 471 119Q489 117 489 93Q489 66 471 66Q248 72 225 72Q114 72 18 66Q0 66 0 93Q0 117 18 119Q100 130 135 168Q181 218 256 414L498 1055Q619 1379 653 1491L770 1549Q784 1549 788 1532Q851 1321 948 1045L1178 398Q1242 218 1278 168Q1306 127 1425 119Q1448 117 1448 93Q1448 66 1426 66Q1197 72 1159 72Q1126 72 897 66Q879 66 879 93Q879 117 897 119Q1003 127 1033 148Q1055 164 1055 205Q1055 243 1008 379ZM142 119ZM246 119ZM680 1330Q665 1285 631 1195Q594 1095 575 1043L459 717Q532 713 686 713Q827 713 893 717L776 1043Q731 1176 680 1330Z"/>
    </g>
</svg>
