<svg xmlns="http://www.w3.org/2000/svg" viewBox="0 -1638 1498 2202">
    <g transform="scale(1, -1)">
        <path d="M1250 -30Q1171 -27 1091 156Q1038 274 1000 428Q926 417 758 406Q600 395 516 380Q470 270 356 49Q312 -23 234 -23Q179 -23 135.0 14.5Q91 52 91 110Q91 161 237 456Q223 487 225 514Q229 562 322 589Q464 835 638 1099Q888 1478 946 1478Q1056 1478 1093 1345Q1113 1238 1156 1024Q1217 736 1305 365Q1312 337 1356 233Q1392 147 1392 104Q1392 46 1348.5 7.0Q1305 -32 1250 -30ZM877 996Q799 862 662 631Q707 641 802 647Q914 654 943 658Q919 788 877 996Z"/>
    </g>
</svg>
