<svg xmlns="http://www.w3.org/2000/svg" viewBox="0 -1638 1498 2202">
    <g transform="scale(1, -1)">
        <path d="M1114 520Q1004 507 840 471L565 416Q359 54 319.0 15.5Q279 -23 227 -23Q190 -23 164.5 2.0Q139 27 139 61Q139 114 350 442Q339 461 339 487Q339 581 455 606Q584 797 853.0 1138.0Q1122 1479 1178 1479Q1256 1479 1268 1368L1276 1032L1317 338L1348 178Q1361 113 1361 82Q1361 39 1324.0 4.0Q1287 -31 1241 -31Q1176 -31 1146.0 101.5Q1116 234 1114 520ZM1081 1112 721 651Q820 677 1102 727Z"/>
    </g>
</svg>
