<svg xmlns="http://www.w3.org/2000/svg" viewBox="0 -1638 1498 2202">
    <g transform="scale(1, -1)">
        <path d="M1064 428Q988 418 818 406Q650 396 572 381Q391 81 343.5 29.0Q296 -23 226 -23Q172 -23 136.5 10.0Q101 43 101 90Q101 143 306 457Q300 472 300 484Q300 558 411 590Q1083 1479 1177 1479Q1284 1479 1304 1346Q1304 1160 1329.0 770.0Q1354 380 1364.0 336.0Q1374 292 1390 233Q1407 164 1407 124Q1407 63 1355.5 16.0Q1304 -31 1240 -31Q1115 -31 1064 428ZM1029 995Q896 813 757 631Q808 641 902 647Q1012 653 1041 657Q1041 789 1029 995Z"/>
    </g>
</svg>
