<svg xmlns="http://www.w3.org/2000/svg" viewBox="0 -2300 1254 3600">
    <g transform="scale(1, -1)">
        <path d="M190 278Q454 957 576 1268Q584 1283 611.5 1304.5Q639 1326 652 1326Q655 1326 658.5 1323.5Q662 1321 664 1320L1071 252Q1121 123 1122 120Q1135 89 1184.5 70.5Q1234 52 1258 52Q1264 43 1264.0 22.5Q1264 2 1262 -6Q1062 4 1042 4Q1001 4 965.5 2.5Q930 1 886.0 -2.0Q842 -5 810 -6Q803 2 803.5 23.0Q804 44 812 52Q835 52 873.5 59.5Q912 67 924 78Q932 86 932 106Q932 133 898.0 230.5Q864 328 830 412L796 496Q790 504 784 504Q758 506 586 506Q460 506 370 500L360 494Q304 346 270 250Q242 168 242 108Q242 91 260.5 79.0Q279 67 305.5 61.5Q332 56 351.0 54.0Q370 52 380 52Q384 48 385.5 25.5Q387 3 384 -6Q355 -5 321.0 -2.0Q287 1 258.0 2.5Q229 4 190 4Q149 4 117.5 2.5Q86 1 48.0 -2.0Q10 -5 -24 -6Q-28 -2 -28.0 20.0Q-28 42 -24 52Q1 52 42.0 62.5Q83 73 96 90Q138 145 190 278ZM582 1084 398 596Q398 588 402 588Q506 584 584 584Q659 584 752 590Q754 590 756 592Q758 596 758 598V600Z"/>
    </g>
</svg>
