<svg xmlns="http://www.w3.org/2000/svg" viewBox="0 -1538 1381 2048">
    <g transform="scale(1, -1)">
        <path d="M754 1421 1198 198Q1223 129 1243.5 104.5Q1264 80 1302 68L1396 40L1398 -3Q1267 0 1155 0Q1041 0 886 -3L882 40L977 68Q997 75 1005.5 83.5Q1014 92 1014 110Q1014 130 1003.5 162.5Q993 195 974 249L880 517H398L293 250Q272 194 260.0 161.0Q248 128 248 109Q248 92 257.5 83.5Q267 75 286 69L379 42L381 -3Q239 0 149 0Q59 0 -52 -3L-57 40L44 71Q82 83 100.0 108.0Q118 133 140 186L651 1406ZM435 608H847L652 1159Z"/>
    </g>
</svg>
