<svg xmlns="http://www.w3.org/2000/svg" viewBox="0 -1538 1371 2048">
    <g transform="scale(1, -1)">
        <path d="M380 444 309 257Q288 202 276.5 168.5Q265 135 265 117Q265 100 274.0 91.0Q283 82 302 77L398 49L401 -3Q256 0 165 0Q70 0 -52 -3L-57 47L50 79Q88 90 106.0 115.5Q124 141 146 193L644 1406L752 1422L1183 206Q1208 136 1228.5 111.5Q1249 87 1287 76L1385 47L1388 -3Q1253 0 1116 0Q935 0 763 -3L758 47L857 76Q877 82 886.0 91.0Q895 100 895 118Q895 138 885.0 170.5Q875 203 856 256L790 444ZM596 1018Q578 966 557 910L420 548H754L631 909Q612 966 596 1018Z"/>
    </g>
</svg>
