<svg xmlns="http://www.w3.org/2000/svg" viewBox="0 -1538 1353 2048">
    <g transform="scale(1, -1)">
        <path d="M299 42 292 -3Q166 0 58 0Q-50 0 -138 -3L-134 40L-33 71Q-10 79 8.5 91.5Q27 104 41.5 119.0Q56 134 67.0 150.5Q78 167 88 183L808 1406L906 1421L1117 198Q1127 130 1144 104Q1161 79 1195 68L1288 40L1282 -3Q1156 0 1036 0Q919 0 779 -3L783 40L878 68Q899 75 912.5 86.0Q926 97 926 129Q926 161 911 249L867 520H400L248 252Q216 195 196.0 156.0Q176 117 176 100Q176 90 184.0 82.5Q192 75 210 69ZM852 608 762 1159 450 608Z"/>
    </g>
</svg>
