<svg xmlns="http://www.w3.org/2000/svg" viewBox="0 -1538 1367 2048">
    <g transform="scale(1, -1)">
        <path d="M324 50 315 -3Q179 0 67 0Q-45 0 -146 -3L-140 48L-29 79Q19 96 45.5 127.0Q72 158 92 191L810 1404L920 1421L1129 206Q1135 172 1141.5 148.5Q1148 125 1156 112Q1172 86 1207 76L1313 48L1306 -3Q1143 0 998 0Q857 0 683 -3L688 48L785 76Q806 83 819.5 94.0Q833 105 833 137Q833 168 818 257L788 443H373L268 260Q236 203 216.0 164.0Q196 125 196 108Q196 88 230 77ZM431 546H771L712 914L699 1020L642 915Z"/>
    </g>
</svg>
