<svg xmlns="http://www.w3.org/2000/svg" viewBox="0 -2300 1172 3600">
    <g transform="scale(1, -1)">
        <path d="M682 52Q736 52 766.0 68.0Q796 84 796 114Q796 174 790 212L745 512H348Q247 329 205 250Q148 139 148 100Q148 85 164.5 74.5Q181 64 205.0 60.0Q229 56 245.5 54.0Q262 52 271 52Q274 48 271.0 25.5Q268 3 263 -6Q236 -5 205.5 -2.0Q175 1 148.0 2.5Q121 4 85 4Q47 4 18.5 2.5Q-10 1 -44.5 -2.0Q-79 -5 -111 -6Q-114 -2 -109.5 19.5Q-105 41 -99 52Q-76 52 -38.5 62.5Q-1 73 15 90Q63 141 139 278L691 1268Q703 1290 730.0 1308.0Q757 1326 771 1326Q778 1326 781 1320L953 252Q973 130 976 116Q980 96 998.0 82.0Q1016 68 1039.0 62.0Q1062 56 1077.5 54.0Q1093 52 1102 52Q1106 40 1103.0 20.0Q1100 0 1096 -6Q911 4 877 4Q839 4 808.0 2.5Q777 1 739.0 -2.0Q701 -5 670 -6Q664 2 668.5 23.0Q673 44 682 52ZM384 578H735L657 1070Z"/>
    </g>
</svg>
