<svg xmlns="http://www.w3.org/2000/svg" viewBox="0 -1255 1229 1641">
    <g transform="scale(1, -1)">
        <path d="M891 391H339L226 84H387Q417 84 430.0 72.5Q443 61 443 42Q443 24 430.0 12.0Q417 0 387 0H73Q43 0 30.0 12.0Q17 24 17 42Q17 61 30.0 72.5Q43 84 73 84H138L509 1086H261Q231 1086 218.0 1097.5Q205 1109 205 1128Q205 1147 218.0 1158.5Q231 1170 261 1170H684L1094 84H1159Q1189 84 1202.0 72.5Q1215 61 1215 42Q1215 24 1202.0 12.0Q1189 0 1159 0H846Q815 0 802.0 12.0Q789 24 789 42Q789 61 802.0 72.5Q815 84 846 84H1006ZM859 475 627 1086H596L371 475Z"/>
    </g>
</svg>
