<svg xmlns="http://www.w3.org/2000/svg" viewBox="0 -1297 1229 1725">
    <g transform="scale(1, -1)">
        <path d="M865 330H367L317 205H367Q441 205 472.5 176.5Q504 148 504 102Q504 57 472.5 28.5Q441 0 367 0H91Q17 0 -14.5 28.5Q-46 57 -46 103Q-46 149 -13.0 178.0Q20 207 96 205L418 1007H284Q210 1007 178.5 1035.5Q147 1064 147 1110Q147 1156 178.5 1184.5Q210 1213 284 1213L727 1212L1135 205Q1207 205 1230 189Q1276 156 1276 102Q1276 57 1245.0 28.5Q1214 0 1140 0H864Q790 0 758.5 28.5Q727 57 727 103Q727 148 758.5 176.5Q790 205 864 205H914ZM780 535 615 941 449 535Z"/>
    </g>
</svg>
