<svg xmlns="http://www.w3.org/2000/svg" viewBox="0 -1297 1229 1725">
    <g transform="scale(1, -1)">
        <path d="M935 330H437L360 205H410Q479 205 503.0 184.0Q527 163 527 124Q527 62 468 21Q437 0 367 0H90Q22 0 -2.5 21.5Q-27 43 -27 81Q-27 133 14.5 170.0Q56 207 139 205L632 1007H497Q429 1007 404.5 1028.5Q380 1050 380 1089Q380 1150 438 1191Q470 1213 541 1213H984L1178 205Q1248 207 1274.0 185.0Q1300 163 1300 124Q1300 62 1240 21Q1210 0 1139 0H863Q795 0 770.5 21.5Q746 43 746 81Q746 142 804 183Q836 205 907 205H957ZM893 535 814 941 562 535Z"/>
    </g>
</svg>
