<svg xmlns="http://www.w3.org/2000/svg" viewBox="0 -1255 1229 1641">
    <g transform="scale(1, -1)">
        <path d="M1017 391H465L286 84H447Q476 84 486.0 75.5Q496 67 496 51Q496 30 479.0 15.0Q462 0 429 0H116Q88 0 78.0 9.0Q68 18 68 34Q68 54 84.5 69.0Q101 84 134 84H198L783 1086H535Q507 1086 497.0 1094.5Q487 1103 487 1120Q487 1140 503.5 1155.0Q520 1170 553 1170H975L1155 84H1220Q1248 84 1258.0 75.5Q1268 67 1268 51Q1268 30 1251.5 15.0Q1235 0 1202 0H888Q860 0 850.0 9.0Q840 18 840 34Q840 54 856.5 69.0Q873 84 906 84H1067ZM1003 475 901 1086H870L514 475Z"/>
    </g>
</svg>
