<svg xmlns="http://www.w3.org/2000/svg" viewBox="0 -2800 2029 4096">
    <g transform="scale(1, -1)">
        <path d="M397 544Q361 442 334.5 366.5Q308 291 288.0 235.0Q268 179 253.0 138.5Q238 98 225 65Q209 27 189.0 6.0Q169 -15 146.0 -24.5Q123 -34 96.0 -35.5Q69 -37 39 -37Q22 -37 -3.5 -36.5Q-29 -36 -50 -35L-64 -25Q56 235 163.5 472.0Q271 709 371 926Q350 959 350 981Q350 1021 414 1022Q597 1424 740.0 1730.5Q883 2037 992 2243Q1002 2262 1018.0 2274.5Q1034 2287 1053.0 2294.0Q1072 2301 1093.0 2304.0Q1114 2307 1134 2307Q1163 2307 1191.0 2302.0Q1219 2297 1251 2283Q1314 1936 1366.5 1658.5Q1419 1381 1464.0 1164.0Q1509 947 1549.0 785.5Q1589 624 1626.0 508.5Q1663 393 1700.0 318.0Q1737 243 1776.5 200.0Q1816 157 1860.0 140.0Q1904 123 1956 123Q1990 123 2025.0 131.0Q2060 139 2102 154L2130 72Q2015 15 1910.0 -15.0Q1805 -45 1724 -45Q1678 -45 1637.5 -28.0Q1597 -11 1559.5 30.5Q1522 72 1486.5 142.0Q1451 212 1415.0 318.0Q1379 424 1341.0 570.5Q1303 717 1261 911Q1076 909 895.5 902.5Q715 896 522 885Q483 782 451.5 696.0Q420 610 397 544ZM1235 1034Q1214 1133 1190.0 1253.5Q1166 1374 1141.0 1508.5Q1116 1643 1090.0 1789.0Q1064 1935 1039 2085H1033Q889 1787 776.0 1518.0Q663 1249 575 1023Q747 1027 908.0 1029.5Q1069 1032 1235 1034Z"/>
    </g>
</svg>
