<svg xmlns="http://www.w3.org/2000/svg" viewBox="0 -1790 1194 2370">
    <g transform="scale(1, -1)">
        <path d="M371 429 244 141Q231 110 260.0 96.5Q289 83 364 73L355 0H-50L-40 73Q24 85 59.5 98.0Q95 111 108 141L576 1205Q601 1225 629.5 1242.5Q658 1260 688.0 1274.0Q718 1288 747.0 1298.5Q776 1309 801 1317L1028 141Q1031 127 1036.5 116.0Q1042 105 1053.5 97.0Q1065 89 1084.0 83.0Q1103 77 1133 73L1124 0H663L673 73Q745 78 773.5 93.0Q802 108 796 141L742 429ZM719 550 629 1022 424 550Z"/>
    </g>
</svg>
