<svg xmlns="http://www.w3.org/2000/svg" viewBox="0 -1790 1210 2370">
    <g transform="scale(1, -1)">
        <path d="M371 424 249 151Q236 120 265.0 106.0Q294 92 369 83L358 0H-55L-44 83Q21 95 55.5 108.0Q90 121 103 151L564 1197Q593 1220 625.5 1238.5Q658 1257 691.5 1272.0Q725 1287 758.0 1298.0Q791 1309 820 1317L1050 151Q1053 137 1058.5 126.0Q1064 115 1075.0 107.0Q1086 99 1105.0 93.0Q1124 87 1154 83L1143 0H657L668 83Q741 88 768.5 103.0Q796 118 790 151L737 424ZM712 555 623 1003 429 555Z"/>
    </g>
</svg>
