<?xml version="1.0" standalone="no"?>
<!DOCTYPE svg PUBLIC "-//W3C//DTD SVG 20010904//EN"
 "http://www.w3.org/TR/2001/REC-SVG-20010904/DTD/svg10.dtd">
<svg version="1.0" xmlns="http://www.w3.org/2000/svg"
 width="283.464567pt" height="283.464567pt" viewBox="0 0 283.464567 283.464567"
 preserveAspectRatio="xMidYMid meet">
<metadata>
Created by potrace 1.13, written by Peter Selinger 2001-2015
</metadata>
<g transform="translate(0.000000,283.464567) scale(0.094804,-0.120112)"
fill="#000000" stroke="none">
<path d="M2245 1926 c-47 -21 -83 -55 -111 -102 -11 -18 -13 -18 -58 4 -26 12
-57 22 -70 22 -18 0 -31 12 -51 46 -33 57 -52 55 -85 -11 -14 -28 -26 -52 -27
-54 -1 -1 -22 7 -47 19 -65 33 -77 24 -70 -48 l7 -59 -59 -6 c-33 -3 -70 -9
-84 -12 -23 -5 -28 0 -64 75 -43 87 -59 96 -90 54 -14 -21 -17 -39 -14 -90 3
-55 2 -64 -12 -58 -28 12 -115 16 -156 6 -22 -5 -54 -7 -71 -5 l-31 5 6 64 c6
74 0 77 -72 42 -32 -15 -49 -32 -62 -60 -19 -43 -23 -44 -63 -23 -23 11 -34
12 -55 2 -45 -21 -43 -38 12 -76 42 -29 37 -34 -13 -16 -22 8 -61 14 -86 15
l-46 0 -7 62 c-4 42 -13 69 -25 82 -19 19 -20 19 -54 -10 -36 -31 -67 -77 -67
-100 0 -18 -10 -17 -35 2 -26 19 -89 36 -109 28 -9 -4 -16 -18 -16 -34 0 -35
35 -120 50 -120 25 0 6 -27 -32 -45 -29 -14 -44 -27 -46 -42 -3 -21 1 -23 45
-23 l49 0 13 -47 c7 -27 8 -49 3 -51 -38 -12 -47 -31 -46 -96 1 -63 0 -66 -22
-66 -26 0 -47 -30 -38 -54 3 -9 13 -16 21 -16 10 0 13 -6 8 -17 -10 -26 -15
-54 -17 -89 -1 -34 47 -144 63 -144 19 0 74 32 106 62 l31 30 12 -22 c7 -14 9
-39 5 -66 l-6 -44 -29 15 c-38 19 -109 20 -116 1 -6 -17 31 -106 44 -106 5 0
13 -10 19 -23 9 -18 6 -25 -13 -40 -28 -21 -31 -49 -8 -68 14 -11 21 -10 46 4
33 19 48 15 48 -11 0 -16 42 -89 85 -150 25 -35 56 -25 82 28 13 24 23 59 23
76 0 32 0 32 35 23 43 -12 121 -8 118 6 -1 6 -5 19 -9 30 -7 17 -6 18 8 7 13
-10 15 -27 11 -85 -5 -68 -3 -74 26 -115 17 -23 36 -42 42 -42 13 0 77 64 96
95 12 19 13 19 23 2 17 -26 86 -67 114 -67 47 0 57 58 22 125 -14 24 -21 47
-18 49 4 2 25 7 47 10 22 4 50 14 62 22 19 12 21 18 11 38 -12 29 -91 66 -138
66 -18 0 -30 3 -28 8 3 4 10 22 17 40 l13 32 20 -25 c35 -44 51 -32 60 45 4
25 6 26 59 10 16 -5 32 -3 43 5 25 19 6 81 -39 125 -19 19 -35 38 -35 42 0 5
16 16 35 24 28 11 46 29 71 72 3 5 34 -10 34 -17 0 -4 -11 -13 -25 -19 -33
-15 -32 -40 3 -54 15 -7 29 -13 31 -14 2 -2 -6 -15 -18 -30 -11 -15 -21 -33
-21 -40 0 -28 74 -46 97 -23 7 7 25 -4 61 -40 46 -46 53 -50 77 -41 23 9 68
-4 93 -25 2 -2 -9 -20 -23 -41 -28 -41 -27 -68 1 -112 20 -30 47 -28 87 7 l33
30 18 -30 c9 -16 25 -29 34 -29 36 0 63 13 61 29 -5 49 1 61 29 61 83 1 92 29
32 94 -33 36 -37 45 -24 50 29 11 34 7 58 -46 29 -67 68 -107 99 -101 24 5 47
43 47 80 0 27 7 28 34 8 22 -17 83 -20 119 -6 24 9 25 12 15 50 -5 21 -24 53
-40 70 l-30 31 36 36 c20 20 36 40 36 44 0 17 -45 40 -79 40 -33 0 -34 1 -17
19 18 20 18 20 61 -1 29 -14 51 -19 70 -14 25 6 26 9 20 49 -4 23 -11 46 -16
51 -18 19 -8 31 28 34 36 2 63 17 63 33 0 17 -81 97 -110 109 -33 14 -38 31
-15 50 10 8 15 31 15 66 l0 54 -42 0 c-42 0 -128 -41 -128 -60 0 -6 -7 -10
-15 -10 -17 0 -20 16 -5 25 14 8 52 85 43 85 -4 0 -2 5 3 10 7 7 22 6 47 -5
41 -17 94 -19 116 -6 27 17 -43 125 -92 144 -8 3 -4 11 11 22 29 21 55 72 48
92 -5 13 -19 15 -76 11 -71 -5 -78 -2 -60 32 10 19 -12 90 -28 90 -4 0 -30
-11 -57 -24z m48 -63 c-1 -26 -11 -54 -24 -73 -18 -23 -20 -33 -11 -42 9 -9
17 -7 34 9 35 31 63 43 104 43 35 0 36 -1 22 -22 -8 -13 -36 -34 -63 -48 -26
-14 -47 -29 -47 -35 0 -5 19 -13 42 -17 51 -9 88 -32 99 -61 16 -42 -29 -41
-109 4 -31 17 -43 20 -52 11 -9 -9 -8 -17 2 -36 15 -28 2 -72 -29 -101 -16
-13 -20 -14 -30 -1 -13 16 -17 101 -6 135 10 33 -16 35 -66 7 -43 -25 -83 -31
-126 -20 -13 4 -23 11 -23 16 0 20 71 78 95 78 36 0 55 10 55 30 0 11 4 21 9
24 5 3 7 14 4 25 -11 42 60 125 101 119 18 -3 21 -9 19 -45z m-368 20 c4 -10
13 -47 19 -83 13 -70 10 -68 84 -56 50 9 57 -6 11 -24 -29 -13 -69 -72 -69
-104 0 -9 16 -22 35 -30 19 -8 35 -20 35 -26 0 -14 -33 -5 -76 21 -17 11 -34
19 -37 19 -3 0 -8 -19 -12 -42 -8 -45 -28 -93 -44 -102 -17 -11 -48 58 -54
118 -3 32 -10 63 -15 68 -11 11 -79 0 -88 -13 -7 -11 -24 -12 -24 -1 0 12 46
32 73 32 43 0 52 15 27 47 -20 29 -46 111 -36 120 9 9 52 -20 86 -58 43 -49
63 -42 50 16 -6 26 -5 53 2 78 12 41 22 46 33 20z m-421 -96 c14 -24 27 -60
28 -80 2 -20 6 -37 10 -37 4 0 25 9 47 21 44 22 131 24 139 2 2 -7 -2 -13 -10
-13 -7 0 -27 -13 -44 -29 -17 -16 -39 -31 -50 -33 -31 -6 -24 -41 11 -50 33
-8 105 -73 105 -93 0 -20 -36 -28 -62 -14 -13 7 -40 29 -61 50 -47 47 -67 42
-67 -14 0 -46 -39 -97 -73 -97 -17 0 -18 6 -15 48 3 26 8 56 13 66 7 17 5 18
-18 14 -23 -5 -25 -3 -15 10 9 10 9 16 2 19 -27 9 -164 116 -159 124 15 24
115 0 144 -34 36 -44 52 -3 30 77 -11 41 -5 106 11 106 5 0 21 -19 34 -43z
m596 -13 c0 -2 -13 2 -30 11 -16 9 -30 18 -30 21 0 2 14 -2 30 -11 17 -9 30
-18 30 -21z m-970 3 c0 -12 -9 -39 -20 -60 -29 -54 -27 -71 8 -61 15 5 51 8
80 8 44 -1 58 -5 80 -27 25 -26 25 -27 5 -27 -32 0 -93 -29 -93 -44 0 -8 16
-20 35 -26 38 -12 59 -37 69 -82 5 -24 3 -28 -15 -28 -27 0 -80 25 -107 50
-39 37 -63 25 -52 -25 6 -28 3 -40 -18 -69 -48 -69 -97 -29 -72 60 17 59 4 69
-56 43 -53 -24 -107 -15 -112 18 -4 24 23 45 106 87 l53 27 -53 49 c-29 28
-48 50 -41 50 16 0 73 -33 73 -42 0 -5 7 -8 15 -8 17 0 35 30 35 59 0 22 47
71 67 71 7 0 13 -10 13 -23z m-404 -32 c3 -14 3 -50 -1 -80 -8 -64 6 -78 48
-50 24 15 66 15 115 -1 19 -6 -75 -92 -109 -99 -44 -10 -35 -31 18 -45 34 -8
59 -24 87 -53 l39 -41 -32 -9 c-37 -9 -94 14 -145 58 -51 44 -77 24 -36 -28
11 -14 23 -40 26 -57 6 -26 2 -37 -27 -66 -18 -19 -36 -34 -39 -34 -9 0 -57
75 -66 102 -3 13 -13 32 -20 43 -8 11 -14 36 -14 57 0 20 -7 43 -15 51 -12 13
-12 15 5 20 28 7 25 21 -15 65 -31 35 -55 79 -55 103 0 12 48 0 79 -19 12 -9
34 -33 47 -54 21 -34 27 -37 44 -26 11 7 16 16 10 23 -16 20 -22 82 -10 106
16 31 41 59 51 59 5 0 11 -11 15 -25z m1057 -192 c-1 -42 7 -62 49 -114 30
-37 68 -44 68 -12 0 19 52 113 63 113 4 0 24 -7 44 -15 63 -26 111 -14 82 21
-10 13 -10 17 2 25 8 5 21 9 29 9 8 0 25 3 38 6 19 6 22 3 22 -25 0 -17 7 -48
15 -68 18 -43 18 -43 1 -43 -24 0 -26 -27 -5 -54 20 -25 20 -26 2 -32 -89 -29
-143 -72 -143 -113 0 -23 9 -33 50 -55 43 -23 49 -30 40 -46 -5 -10 -10 -30
-10 -45 0 -25 0 -25 -30 -10 -16 8 -43 15 -60 15 -28 0 -30 -3 -30 -34 0 -24
11 -49 36 -82 28 -36 33 -49 22 -55 -16 -10 -25 -11 -55 -3 -19 5 -23 13 -23
50 0 23 -5 46 -10 49 -6 4 -33 1 -60 -5 -47 -11 -50 -11 -84 16 -32 26 -34 30
-20 46 22 24 23 78 2 92 -14 8 -28 7 -62 -5 l-45 -16 -31 38 c-16 21 -34 50
-40 64 -6 17 -20 27 -41 32 -26 5 -30 9 -24 27 18 57 18 67 -2 72 -19 5 -19 6
1 49 l21 44 35 -34 c44 -42 103 -51 143 -21 18 14 18 16 -2 53 -11 22 -31 51
-45 64 -33 31 -33 37 7 47 40 12 51 2 50 -45z m-424 21 l24 -17 -24 -13 c-35
-19 -53 -17 -78 10 l-23 24 24 5 c44 8 54 7 77 -9z m46 -64 c-3 -5 -14 -10
-23 -10 -15 0 -15 2 -2 10 20 13 33 13 25 0z m1035 -50 c0 -39 -25 -77 -61
-96 -16 -8 -29 -22 -29 -31 0 -12 7 -14 38 -9 52 8 99 -7 128 -41 l24 -28 -21
-9 c-15 -7 -35 -5 -69 7 -26 9 -55 17 -64 17 -28 0 -17 -29 17 -46 42 -21 67
-53 67 -86 0 -16 -2 -28 -5 -28 -20 0 -59 30 -81 61 -36 52 -56 52 -48 0 7
-41 -16 -91 -42 -91 -19 0 -35 66 -23 97 12 31 12 70 0 78 -5 3 -26 -6 -47
-20 -44 -30 -80 -32 -114 -5 l-25 20 33 29 c19 16 60 39 93 51 l59 21 -30 44
-30 44 31 -9 c18 -5 39 -16 48 -23 20 -18 41 -11 41 13 0 23 59 63 103 69 4 1
7 -13 7 -29z m-1017 -36 c2 -25 0 -58 -6 -74 l-11 -28 -38 19 c-26 13 -44 17
-54 11 -17 -10 -13 -16 30 -46 18 -12 16 -15 -27 -41 -26 -15 -47 -34 -47 -43
0 -22 46 -79 70 -87 25 -8 26 -42 2 -73 l-18 -24 -49 31 c-27 17 -57 31 -67
31 -24 0 -34 -27 -20 -50 9 -16 6 -19 -22 -24 -18 -4 -41 -15 -51 -26 -17 -19
-17 -21 0 -40 10 -11 26 -22 37 -25 17 -6 17 -8 -7 -37 -30 -36 -32 -55 -5
-63 25 -8 25 -16 -1 -38 -20 -18 -21 -17 -44 7 -28 30 -52 33 -71 9 -13 -17
-15 -17 -25 0 -5 9 -16 17 -23 17 -8 0 -19 7 -26 15 -9 10 -32 15 -76 15 -66
0 -73 6 -52 39 9 15 8 29 -4 67 -17 53 -15 64 10 64 29 1 102 38 102 53 0 20
-74 86 -116 103 -31 13 -34 18 -35 57 -1 55 2 101 7 107 3 2 14 -1 24 -8 24
-15 104 -16 131 -2 24 14 24 31 -2 64 -11 14 -19 26 -17 26 2 0 17 4 34 9 l32
9 -5 -37 c-4 -32 0 -43 27 -74 18 -21 38 -37 45 -37 28 0 122 111 110 130 -10
17 11 11 38 -10 26 -21 98 -39 130 -32 14 3 16 10 11 37 -6 35 1 41 52 44 18
1 22 -6 27 -45z m127 -59 c0 -15 -25 -55 -35 -55 -7 0 -20 -9 -30 -20 -14 -16
-16 -23 -7 -32 10 -10 17 -10 32 0 24 15 65 16 91 2 38 -21 20 -32 -43 -29
-52 3 -63 1 -66 -12 -2 -11 6 -19 21 -23 32 -8 77 -44 77 -62 0 -27 -38 -14
-67 23 -32 39 -53 38 -53 -4 0 -34 -30 -83 -51 -83 -25 0 -32 45 -13 81 21 41
6 59 -31 39 -22 -12 -28 -12 -41 2 -9 9 -13 21 -10 27 10 15 87 54 93 47 3 -3
14 -1 24 5 14 7 17 17 13 38 -6 26 -3 30 25 36 17 3 33 11 36 16 6 9 35 13 35
4z m-970 -53 c0 -11 61 -105 75 -114 5 -4 19 -1 30 7 52 38 55 38 52 -2 -2
-36 0 -37 35 -43 41 -7 114 -58 101 -70 -21 -21 -78 -27 -111 -11 -29 13 -34
13 -42 1 -7 -11 -2 -22 19 -40 37 -31 57 -98 37 -119 -25 -24 -59 -5 -95 54
-18 30 -39 55 -45 55 -6 0 -18 -13 -28 -29 -19 -34 -63 -66 -78 -56 -12 7 -40
71 -40 91 0 8 17 32 37 55 35 38 36 42 20 54 -13 9 -15 14 -5 17 10 4 10 10 0
32 -15 34 -16 98 0 114 14 14 38 16 38 4z m1087 -190 c-8 -48 18 -55 52 -14
30 36 81 54 81 28 0 -9 -19 -26 -45 -38 -56 -27 -62 -58 -12 -58 40 0 82 -21
82 -40 0 -12 -14 -15 -60 -15 -48 0 -59 -3 -56 -15 15 -63 18 -79 11 -90 -5
-8 -12 -7 -24 5 -29 30 -38 53 -26 75 11 21 6 40 -12 40 -5 0 -27 -13 -48 -30
-43 -34 -50 -36 -50 -15 0 8 3 15 8 15 4 0 20 11 37 24 l30 24 -43 11 c-49 14
-48 26 2 35 40 8 46 19 34 65 -7 25 -6 36 3 42 23 14 41 -12 36 -49z m563 13
c0 -38 5 -51 31 -76 27 -26 36 -30 68 -24 20 3 47 2 60 -3 22 -8 21 -10 -28
-47 -63 -49 -65 -60 -9 -70 27 -5 81 -62 73 -75 -8 -14 -72 -12 -98 1 -12 6
-32 21 -44 32 -12 11 -29 17 -37 14 -14 -5 -14 -9 -1 -34 19 -35 19 -54 1 -79
-15 -19 -15 -19 -34 1 -11 11 -29 47 -40 80 -19 57 -22 60 -51 59 -17 -1 -28
2 -25 7 3 5 11 9 19 9 29 0 24 20 -11 52 -39 36 -71 88 -54 88 11 0 73 -31
102 -52 29 -21 39 1 24 54 -13 43 -13 48 7 77 32 44 47 40 47 -14z m-930 -136
c0 -16 30 -10 37 9 4 9 13 23 20 30 19 20 17 -7 -2 -28 -15 -16 -12 -20 35
-54 31 -23 50 -43 50 -56 0 -25 -7 -25 -49 1 -48 29 -60 21 -53 -38 5 -44 4
-47 -11 -34 -10 7 -17 21 -17 31 0 10 -7 23 -15 30 -12 10 -21 8 -51 -15 -27
-21 -40 -25 -56 -18 -19 8 -19 9 2 36 12 16 25 26 28 23 3 -3 11 -1 19 5 19
17 -2 39 -38 39 -53 0 -47 28 8 32 41 2 55 16 42 41 -11 19 -10 19 20 -2 17
-12 31 -27 31 -32z m643 -20 c-1 -13 -5 -36 -8 -51 -7 -26 -6 -27 33 -25 53 2
61 -7 33 -37 -27 -29 -20 -46 18 -46 28 0 81 -33 81 -51 0 -13 -54 -11 -85 3
-37 16 -55 -3 -26 -28 23 -20 29 -74 8 -74 -7 0 -23 20 -35 45 -12 25 -26 45
-31 45 -5 0 -20 -19 -33 -42 -28 -51 -44 -57 -60 -23 -10 23 -8 29 25 63 41
42 47 71 16 79 -16 4 -17 8 -7 14 10 6 10 13 2 27 -20 31 -6 84 31 114 26 22
40 17 38 -13z m-119 -63 c-5 -21 -12 -26 -35 -26 -24 0 -29 4 -29 24 0 21 6
25 33 28 41 4 39 5 31 -26z m-1053 -58 c4 -6 4 -18 2 -28 -7 -27 9 -31 60 -15
36 11 54 11 79 3 l32 -11 -34 -29 c-19 -15 -42 -28 -52 -28 -9 0 -22 -9 -28
-20 -9 -17 -6 -20 25 -29 31 -8 84 -54 85 -73 1 -21 -85 1 -132 34 -29 21 -45
-4 -24 -36 27 -43 16 -136 -17 -136 -19 1 -75 102 -83 148 -5 34 -11 42 -27
42 -16 0 -18 3 -9 12 9 9 -2 24 -43 65 -30 29 -55 57 -55 63 0 17 43 10 95
-15 36 -18 53 -21 62 -14 9 8 10 17 3 29 -6 10 -10 28 -10 40 0 19 4 21 33 15
17 -4 35 -12 38 -17z m463 -94 c-10 -19 -27 -40 -36 -45 -10 -5 -18 -19 -18
-31 0 -17 4 -19 23 -13 43 14 104 17 145 5 72 -19 48 -38 -63 -49 -71 -7 -83
-27 -32 -54 19 -10 42 -34 51 -54 15 -32 15 -38 3 -51 -9 -8 -23 -11 -35 -8
-21 7 -91 78 -109 110 -14 26 -36 10 -30 -22 6 -33 -31 -112 -54 -112 -27 0
-43 29 -41 78 2 96 6 137 14 143 5 3 1 19 -7 36 -17 34 -11 83 10 83 17 0 45
-44 45 -70 0 -36 27 -21 46 24 13 30 30 51 54 65 46 26 59 13 34 -35z m-236
-49 c-2 -2 -19 -5 -38 -7 -28 -2 -35 1 -35 14 0 10 16 28 35 42 l35 24 3 -35
c2 -19 2 -36 0 -38z"/>
</g>
</svg>
